<svg width="70" height="70" viewBox="0 0 70 70" fill="none" xmlns="http://www.w3.org/2000/svg">
<path opacity="0.968" fill-rule="evenodd" clip-rule="evenodd" d="M34.795 4.7168C35.2132 4.75735 35.555 4.93963 35.8204 5.26367C36.5463 6.69293 37.2528 8.12848 37.9395 9.57031C39.5305 9.82365 41.1256 10.0515 42.7247 10.2539C43.3705 10.5869 43.5756 11.1109 43.3399 11.8262C42.1133 12.9966 40.9055 14.1816 39.7168 15.3809C40.161 17.0886 40.4118 18.8204 40.4688 20.5762C40.0396 21.1336 39.5156 21.2475 38.8965 20.918C37.5749 20.2115 36.2533 19.5053 34.9317 18.7988C33.4153 19.6481 31.8659 20.4229 30.2833 21.123C29.6009 20.9882 29.2819 20.5781 29.3262 19.8926C29.5295 18.3746 29.803 16.8707 30.1465 15.3809C29.0051 14.1254 27.7974 12.9405 26.5235 11.8262C26.2878 11.1109 26.4929 10.5869 27.1387 10.2539C28.7355 10.0372 30.3306 9.80937 31.9239 9.57031C32.6106 8.12848 33.317 6.69293 34.043 5.26367C34.2481 4.99451 34.4987 4.81223 34.795 4.7168Z" fill="url(#paint0_linear_228_1561)"/>
<path opacity="0.967" fill-rule="evenodd" clip-rule="evenodd" d="M11.2793 14.6973C11.7034 14.65 12.0908 14.7412 12.4414 14.9707C13.185 16.4123 13.8914 17.8707 14.5605 19.3457C16.2255 19.7194 17.9116 20.0157 19.6191 20.2344C20.1935 20.648 20.3075 21.1722 19.9609 21.8067C18.7898 22.9778 17.6277 24.1399 16.4746 25.293C16.7848 26.8126 17.0582 28.3392 17.2949 29.8731C17.2313 30.8184 16.73 31.1602 15.791 30.8985C14.4402 30.1547 13.0731 29.4484 11.6894 28.7793C10.3058 29.4484 8.9386 30.1547 7.58786 30.8985C6.17368 31.0757 5.69517 30.4604 6.15232 29.0528C6.36897 27.7872 6.61962 26.534 6.90427 25.293C5.78364 24.1267 4.62153 23.0101 3.41794 21.9434C3.21877 21.5516 3.1732 21.1414 3.28122 20.7129C3.34958 20.4623 3.50909 20.3028 3.75974 20.2344C5.40921 19.9859 7.04983 19.7124 8.68161 19.4141C9.44267 18.0059 10.1491 16.5703 10.8008 15.1075C10.9573 14.9521 11.1168 14.8154 11.2793 14.6973Z" fill="url(#paint1_linear_228_1561)"/>
<path opacity="0.968" fill-rule="evenodd" clip-rule="evenodd" d="M57.7638 14.6972C58.2686 14.6249 58.7014 14.7616 59.0626 15.1074C59.7432 16.5573 60.4495 17.9928 61.1818 19.414C62.8135 19.7124 64.4541 19.9858 66.1036 20.2343C66.7725 20.6985 66.8863 21.2682 66.4454 21.9433C65.3103 22.9416 64.2165 23.9899 63.1642 25.0879C63.2731 26.7218 63.5237 28.3397 63.9161 29.9414C63.7437 30.8868 63.1969 31.2059 62.2755 30.8984C60.8979 30.1984 59.5536 29.4465 58.2423 28.6425C56.8632 29.4119 55.4732 30.1638 54.0724 30.8984C52.8023 31.1202 52.3237 30.5961 52.6368 29.3261C52.8654 27.977 53.1162 26.6325 53.3888 25.2929C52.1902 24.0943 50.9825 22.8867 49.7657 21.6699C49.5773 21.0626 49.7368 20.5841 50.2443 20.2343C51.9517 20.0156 53.6379 19.7193 55.3028 19.3457C55.972 17.8706 56.6784 16.4122 57.422 14.9707C57.558 14.8933 57.6719 14.8021 57.7638 14.6972Z" fill="url(#paint2_linear_228_1561)"/>
<path opacity="0.969" fill-rule="evenodd" clip-rule="evenodd" d="M32.7442 25.2335C39.9449 24.6532 45.5276 27.3419 49.4923 33.2999C52.3635 38.5439 52.6369 43.9216 50.3126 49.4327C47.0818 55.6195 41.9548 58.8553 34.9317 59.1398C28.6171 58.9348 23.7636 56.2005 20.3712 50.9366C17.6108 45.9621 17.2462 40.8125 19.2774 35.4874C21.9767 29.7112 26.4655 26.2932 32.7442 25.2335ZM33.9747 30.5656C39.621 30.5267 43.563 33.0787 45.8009 38.2218C47.4422 44.0542 45.7787 48.6798 40.8106 52.0988C35.1138 54.8978 30.1236 53.9635 25.8399 49.296C23.4628 46.0629 22.8249 42.5082 23.9259 38.632C25.717 33.9916 29.0666 31.3029 33.9747 30.5656Z" fill="url(#paint3_linear_228_1561)"/>
<path opacity="0.971" fill-rule="evenodd" clip-rule="evenodd" d="M33.2911 32.6074C38.9403 32.1595 42.6089 34.6204 44.297 39.9902C45.0929 45.0755 43.2016 48.744 38.6231 50.9961C33.9013 52.5664 30.0048 51.4043 26.9337 47.5097C24.2998 42.6912 24.9607 38.3846 28.9161 34.5898C30.2361 33.5965 31.6945 32.9358 33.2911 32.6074ZM39.3067 38.7597C37.1787 40.705 35.0823 42.7101 33.0177 44.7754C32.3531 43.6977 31.6695 42.6268 30.9669 41.5625C29.9251 41.2363 29.4466 41.6236 29.5313 42.7246C30.3061 44.0918 31.0808 45.459 31.8556 46.8261C32.2753 47.4013 32.7993 47.5152 33.4278 47.1679C35.6837 44.9121 37.9395 42.6562 40.1954 40.4004C40.5803 39.4838 40.284 38.9369 39.3067 38.7597Z" fill="url(#paint4_linear_228_1561)"/>
<path opacity="0.943" fill-rule="evenodd" clip-rule="evenodd" d="M20.5762 54.6191C21.6832 55.6104 22.8225 56.5902 23.9941 57.5586C25.1613 58.3014 26.3463 59.0078 27.5488 59.6777C26.5006 61.5006 25.4525 63.3236 24.4043 65.1465C23.4247 63.8713 22.3765 62.6635 21.2598 61.5234C19.7251 61.6254 18.1984 61.8305 16.6797 62.1387C16.5658 62.0931 16.4518 62.0475 16.3379 62.002C17.7544 59.5387 19.1671 57.0778 20.5762 54.6191Z" fill="url(#paint5_linear_228_1561)"/>
<path opacity="0.945" fill-rule="evenodd" clip-rule="evenodd" d="M49.0137 54.6191C49.1498 54.6074 49.2637 54.653 49.3555 54.7558C50.7455 57.1712 52.1354 59.5865 53.5254 62.0019C53.4342 62.0475 53.3431 62.0931 53.252 62.1386C51.7109 61.8284 50.1614 61.6234 48.6035 61.5234C47.534 62.6616 46.4857 63.8237 45.459 65.0097C44.3763 63.255 43.3282 61.4776 42.3145 59.6777C44.389 58.6175 46.3031 57.3186 48.0566 55.7812C48.4258 55.4274 48.7447 55.0401 49.0137 54.6191Z" fill="url(#paint6_linear_228_1561)"/>
<defs>
<linearGradient id="paint0_linear_228_1561" x1="30.1775" y1="4.7168" x2="42.8482" y2="21.5639" gradientUnits="userSpaceOnUse">
<stop offset="0.404" stop-color="#65CDAA"/>
<stop offset="1" stop-color="#3E9175"/>
</linearGradient>
<linearGradient id="paint1_linear_228_1561" x1="6.95663" y1="14.6852" x2="19.5361" y2="31.4491" gradientUnits="userSpaceOnUse">
<stop offset="0.404" stop-color="#65CDAA"/>
<stop offset="1" stop-color="#3E9175"/>
</linearGradient>
<linearGradient id="paint2_linear_228_1561" x1="53.4407" y1="14.6785" x2="66.0364" y2="31.5142" gradientUnits="userSpaceOnUse">
<stop offset="0.404" stop-color="#65CDAA"/>
<stop offset="1" stop-color="#3E9175"/>
</linearGradient>
<linearGradient id="paint3_linear_228_1561" x1="25.4554" y1="25.1562" x2="51.9664" y2="59.0663" gradientUnits="userSpaceOnUse">
<stop offset="0.404" stop-color="#65CDAA"/>
<stop offset="1" stop-color="#3E9175"/>
</linearGradient>
<linearGradient id="paint4_linear_228_1561" x1="29.569" y1="32.5557" x2="44.4718" y2="51.6745" gradientUnits="userSpaceOnUse">
<stop offset="0.404" stop-color="#65CDAA"/>
<stop offset="1" stop-color="#3E9175"/>
</linearGradient>
<linearGradient id="paint5_linear_228_1561" x1="18.8091" y1="54.6191" x2="26.876" y2="65.639" gradientUnits="userSpaceOnUse">
<stop offset="0.404" stop-color="#65CDAA"/>
<stop offset="1" stop-color="#3E9175"/>
</linearGradient>
<linearGradient id="paint6_linear_228_1561" x1="44.7857" y1="54.6173" x2="52.7176" y2="65.5935" gradientUnits="userSpaceOnUse">
<stop offset="0.404" stop-color="#65CDAA"/>
<stop offset="1" stop-color="#3E9175"/>
</linearGradient>
</defs>
</svg>
