<svg width="70" height="70" viewBox="0 0 70 70" fill="none" xmlns="http://www.w3.org/2000/svg">
<path opacity="0.961" fill-rule="evenodd" clip-rule="evenodd" d="M33.9746 2.52927C34.9782 2.50653 35.9808 2.52931 36.9824 2.59763C37.1701 3.13764 37.398 3.66174 37.666 4.1699C38.5622 4.41531 39.4052 4.77989 40.1953 5.26364C40.775 4.91507 41.3902 4.70999 42.041 4.64841C42.6107 5.21808 43.1803 5.78773 43.75 6.35739C43.7649 7.03667 43.5598 7.6519 43.1347 8.2031C43.6188 8.99473 43.9835 9.83783 44.2285 10.7324C44.7923 11.0418 45.3848 11.2696 46.0058 11.416C46.0511 12.4227 46.0054 13.4253 45.8691 14.4238C45.3209 14.652 44.774 14.8799 44.2285 15.1074C43.9835 16.0019 43.6188 16.8451 43.1347 17.6367C43.5073 18.2074 43.7124 18.8226 43.75 19.4824C43.1119 20.1205 42.474 20.7584 41.8359 21.3965C41.2721 21.1601 40.7252 20.8866 40.1953 20.5761C39.4037 21.0603 38.5605 21.4249 37.666 21.6699C37.385 22.1933 37.1572 22.7401 36.9824 23.3105C35.9798 23.4928 34.9771 23.4928 33.9746 23.3105C33.7997 22.7401 33.5719 22.1933 33.291 21.6699C32.3964 21.4249 31.5533 21.0603 30.7617 20.5761C30.2318 20.8866 29.6849 21.1601 29.1211 21.3965C28.483 20.7584 27.8451 20.1205 27.207 19.4824C27.2446 18.8226 27.4497 18.2074 27.8222 17.6367C27.3381 16.8451 26.9735 16.0019 26.7285 15.1074C26.2203 14.8394 25.6962 14.6115 25.1562 14.4238C25.0426 13.4181 25.0653 12.4155 25.2246 11.416C25.742 11.2136 26.2434 10.9857 26.7285 10.7324C26.9739 9.83627 27.3385 8.99317 27.8222 8.2031C27.4497 7.63238 27.2446 7.01715 27.207 6.35739C27.7767 5.78773 28.3463 5.21808 28.916 4.64841C29.5758 4.68602 30.191 4.8911 30.7617 5.26364C31.5518 4.77989 32.3948 4.41531 33.291 4.1699C33.5728 3.64323 33.8005 3.09635 33.9746 2.52927ZM34.5214 8.13474C37.4482 7.89909 39.3394 9.17514 40.1953 11.9629C40.4899 14.8144 39.2823 16.7056 36.5722 17.6367C33.5916 17.9815 31.6547 16.7282 30.7617 13.8769C30.4761 10.9358 31.7294 9.02178 34.5214 8.13474Z" fill="url(#paint0_linear_228_1722)"/>
<path opacity="0.952" fill-rule="evenodd" clip-rule="evenodd" d="M11.2793 15.6543C17.0446 15.2201 21.1689 17.59 23.6523 22.7637C25.5586 28.5636 24.0774 33.2804 19.2089 36.9141C14.5507 39.5243 10.039 39.2964 5.67379 36.2305C1.47813 32.4132 0.361591 27.8331 2.32418 22.4902C4.15162 18.6787 7.13665 16.4001 11.2793 15.6543ZM11.5527 17.9785C15.7061 17.6739 18.8734 19.269 21.0547 22.7637C22.8235 26.5318 22.4134 30.0408 19.8242 33.291C18.0516 29.6588 15.1577 28.1777 11.1425 28.8477C8.765 29.4706 7.07881 30.9061 6.08395 33.1543C3.66275 30.3665 3.09309 27.2219 4.37496 23.7207C5.78549 20.5534 8.17807 18.6393 11.5527 17.9785Z" fill="url(#paint1_linear_228_1722)"/>
<path opacity="0.963" fill-rule="evenodd" clip-rule="evenodd" d="M56.3965 16.7481C61.6071 16.31 65.3669 18.4063 67.6758 23.0371C69.3506 27.6908 68.4163 31.724 64.8731 35.1367C60.6668 38.269 56.3374 38.4514 51.8848 35.6836C47.7922 32.2795 46.6301 28.064 48.3984 23.0371C50.005 19.584 52.671 17.4877 56.3965 16.7481ZM57.627 19.6192C58.6998 19.5246 59.2011 20.0258 59.1309 21.1231C60.8141 21.5518 61.7939 22.6 62.0703 24.2676C61.6187 25.0875 61.0263 25.2242 60.293 24.6778C59.6567 23.2549 58.5858 22.7764 57.0801 23.2422C56.0349 23.8084 55.8525 24.5831 56.5332 25.5664C57.4572 25.9457 58.4142 26.2191 59.4043 26.3867C61.995 27.2612 62.8381 28.9702 61.9336 31.5137C61.1842 32.3787 60.25 32.9483 59.1309 33.2227C59.22 34.0671 58.8555 34.5911 58.0371 34.7949C57.2396 34.555 56.8295 34.0081 56.8066 33.1543C55.1348 32.6903 54.0868 31.6194 53.6621 29.9414C53.7873 29.1547 54.243 28.8358 55.0293 28.9844C55.5092 29.2809 55.8055 29.7139 55.918 30.2832C56.4685 30.9307 57.175 31.2497 58.0371 31.2403C59.016 31.3034 59.768 30.9388 60.293 30.1465C60.4106 29.5378 60.2055 29.0593 59.6777 28.711C58.29 28.3238 56.9229 27.8681 55.5762 27.3438C53.9793 26.1195 53.6375 24.5929 54.5508 22.7637C55.1357 21.9514 55.9103 21.4046 56.875 21.1231C56.9343 20.5037 57.1849 20.0024 57.627 19.6192Z" fill="url(#paint2_linear_228_1722)"/>
<path opacity="0.956" fill-rule="evenodd" clip-rule="evenodd" d="M12.5098 20.7129C15.5616 20.8708 16.906 22.4658 16.543 25.498C15.8078 27.5079 14.3723 28.3966 12.2363 28.1641C9.93455 27.5003 8.95472 25.9736 9.29689 23.584C9.79732 21.9795 10.8683 21.0224 12.5098 20.7129Z" fill="url(#paint3_linear_228_1722)"/>
<path opacity="0.886" fill-rule="evenodd" clip-rule="evenodd" d="M35.0684 27.1387C35.9453 27.0174 36.4694 27.382 36.6407 28.2324C36.7319 30.7845 36.7319 33.3365 36.6407 35.8887C36.3683 36.8618 35.7531 37.1581 34.795 36.7773C34.4849 36.5643 34.3255 36.2682 34.3164 35.8887C34.2252 33.3365 34.2252 30.7845 34.3164 28.2324C34.3834 27.7339 34.634 27.3693 35.0684 27.1387Z" fill="url(#paint4_linear_228_1722)"/>
<path opacity="0.913" fill-rule="evenodd" clip-rule="evenodd" d="M25.3614 32.7441C25.7402 32.7333 26.1047 32.8017 26.4552 32.9492C28.7575 34.7515 31.0134 36.5972 33.2227 38.4863C33.3715 39.9319 32.7562 40.4104 31.377 39.9219C29.2351 38.2357 27.0932 36.5494 24.9512 34.8633C24.362 34.0118 24.4987 33.3054 25.3614 32.7441Z" fill="url(#paint5_linear_228_1722)"/>
<path opacity="0.914" fill-rule="evenodd" clip-rule="evenodd" d="M44.912 32.7441C46.2833 32.8706 46.6706 33.5542 46.0741 34.7949C43.9095 36.5039 41.7447 38.2129 39.58 39.9219C38.8651 40.2802 38.2498 40.1663 37.7343 39.5801C37.6226 39.1065 37.6682 38.6507 37.871 38.2129C40.2198 36.3694 42.5669 34.5464 44.912 32.7441Z" fill="url(#paint6_linear_228_1722)"/>
<path opacity="0.973" fill-rule="evenodd" clip-rule="evenodd" d="M22.0801 45.8692C22.727 45.8525 23.365 45.9208 23.9941 46.0742C27.7007 47.5073 31.4833 48.6921 35.3418 49.6289C36.3424 50.3903 36.5475 51.3245 35.957 52.4317C35.7204 52.7211 35.4241 52.9262 35.0684 53.0469C34.3313 53.1415 33.6021 53.096 32.8809 52.9102C30.9047 52.3577 28.9223 51.8336 26.9336 51.3379C26.036 51.4433 25.7171 51.9447 25.9766 52.8418C26.0904 52.9557 26.2045 53.0697 26.3184 53.1836C29.1628 54.0201 32.0339 54.7492 34.9316 55.3711C36.3783 55.5473 37.791 55.4106 39.1699 54.9609C43.5683 52.4199 47.9888 49.9133 52.4316 47.4414C53.6972 46.8846 54.9734 46.8389 56.2598 47.3047C56.5492 47.5414 56.7543 47.8376 56.875 48.1934C57.0268 49.0036 56.9357 49.7782 56.6016 50.5176C50.2786 54.511 43.9212 58.453 37.5293 62.3438C36.2705 63.1332 34.9033 63.4523 33.4277 63.3008C28.4241 62.0556 23.4339 60.7567 18.457 59.4043C17.6355 59.7581 16.838 60.1683 16.0645 60.6348C15.8741 60.4837 15.7146 60.3013 15.5859 60.0879C14.0063 57.3616 12.4796 54.6044 11.0059 51.8164C13.577 50.2342 16.1746 48.6846 18.7988 47.168C19.8518 46.5826 20.9456 46.1496 22.0801 45.8692Z" fill="url(#paint7_linear_228_1722)"/>
<path opacity="0.942" fill-rule="evenodd" clip-rule="evenodd" d="M6.63082 49.5605C6.97869 49.5064 7.27492 49.5976 7.51949 49.834C10.345 54.847 13.1705 59.86 15.9961 64.873C16.1186 65.2183 16.0502 65.5145 15.791 65.7617C14.8795 66.2631 13.9681 66.7643 13.0566 67.2656C12.7114 67.3881 12.4152 67.3198 12.1679 67.0605C9.3424 62.0475 6.51689 57.0345 3.69137 52.0215C3.5898 51.7561 3.61259 51.5055 3.75973 51.2695C4.77061 50.7652 5.72764 50.1955 6.63082 49.5605ZM6.08395 51.4746C7.267 51.4045 7.74552 51.9513 7.51949 53.1152C6.76969 54.0388 6.08609 53.9932 5.46871 52.9785C5.30134 52.3121 5.50642 51.8108 6.08395 51.4746Z" fill="url(#paint8_linear_228_1722)"/>
<defs>
<linearGradient id="paint0_linear_228_1722" x1="29.7005" y1="2.52075" x2="46.012" y2="23.4556" gradientUnits="userSpaceOnUse">
<stop offset="0.404" stop-color="#65CDAA"/>
<stop offset="1" stop-color="#3E9175"/>
</linearGradient>
<linearGradient id="paint1_linear_228_1722" x1="6.4715" y1="15.6039" x2="24.4954" y2="38.6844" gradientUnits="userSpaceOnUse">
<stop offset="0.404" stop-color="#65CDAA"/>
<stop offset="1" stop-color="#3E9175"/>
</linearGradient>
<linearGradient id="paint2_linear_228_1722" x1="52.2016" y1="16.6913" x2="68.5362" y2="37.5888" gradientUnits="userSpaceOnUse">
<stop offset="0.404" stop-color="#65CDAA"/>
<stop offset="1" stop-color="#3E9175"/>
</linearGradient>
<linearGradient id="paint3_linear_228_1722" x1="10.8551" y1="20.7129" x2="16.7138" y2="28.1108" gradientUnits="userSpaceOnUse">
<stop offset="0.404" stop-color="#65CDAA"/>
<stop offset="1" stop-color="#3E9175"/>
</linearGradient>
<linearGradient id="paint4_linear_228_1722" x1="34.7905" y1="27.116" x2="39.3907" y2="28.5945" gradientUnits="userSpaceOnUse">
<stop offset="0.404" stop-color="#65CDAA"/>
<stop offset="1" stop-color="#3E9175"/>
</linearGradient>
<linearGradient id="paint5_linear_228_1722" x1="26.4997" y1="32.743" x2="31.9539" y2="40.9632" gradientUnits="userSpaceOnUse">
<stop offset="0.404" stop-color="#65CDAA"/>
<stop offset="1" stop-color="#3E9175"/>
</linearGradient>
<linearGradient id="paint6_linear_228_1722" x1="39.5861" y1="32.7441" x2="45.054" y2="40.9829" gradientUnits="userSpaceOnUse">
<stop offset="0.404" stop-color="#65CDAA"/>
<stop offset="1" stop-color="#3E9175"/>
</linearGradient>
<linearGradient id="paint7_linear_228_1722" x1="21.1325" y1="45.8667" x2="28.7868" y2="71.6856" gradientUnits="userSpaceOnUse">
<stop offset="0.404" stop-color="#65CDAA"/>
<stop offset="1" stop-color="#3E9175"/>
</linearGradient>
<linearGradient id="paint8_linear_228_1722" x1="6.36819" y1="49.5454" x2="20.5754" y2="62.2825" gradientUnits="userSpaceOnUse">
<stop offset="0.404" stop-color="#65CDAA"/>
<stop offset="1" stop-color="#3E9175"/>
</linearGradient>
</defs>
</svg>
