<svg width="70" height="70" viewBox="0 0 70 70" fill="none" xmlns="http://www.w3.org/2000/svg">
<g clip-path="url(#clip0_228_1634)">
<path opacity="0.967" fill-rule="evenodd" clip-rule="evenodd" d="M50.2441 -0.0683594C51.0644 -0.0683594 51.8847 -0.0683594 52.705 -0.0683594C55.0893 0.681747 56.3654 2.32237 56.5332 4.85352C56.3498 7.32259 55.0738 8.87208 52.705 9.50195C52.7279 12.7379 52.705 15.9737 52.6367 19.209C52.2134 21.911 50.6411 23.3922 47.9199 23.6523C44.2287 23.7207 40.5373 23.7435 36.8457 23.7207C36.8457 25.0424 36.8457 26.3639 36.8457 27.6855C41.0842 27.7084 45.3225 27.6855 49.5605 27.6172C52.2771 25.9721 55.0115 24.3543 57.7636 22.7637C57.902 22.4442 57.8792 22.1252 57.6953 21.8066C57.2828 18.1407 58.9006 16.0442 62.5488 15.5176C65.598 15.8323 67.1931 17.5186 67.3339 20.5762C67.138 23.6205 65.5202 25.2154 62.4804 25.3613C62.0931 25.3385 61.7056 25.3158 61.3183 25.293C60.6342 25.0167 59.9506 24.7889 59.2675 24.6094C56.3278 26.3756 53.3655 28.1075 50.3808 29.8047C45.8694 29.873 41.3576 29.8959 36.8457 29.873C36.8457 31.1947 36.8457 32.5162 36.8457 33.8379C43.7729 33.8607 50.6999 33.8379 57.6269 33.7695C58.8911 30.4713 61.2154 29.3321 64.5996 30.3516C66.9879 31.7703 67.8309 33.8439 67.1289 36.5723C65.9264 39.3267 63.8528 40.3521 60.9082 39.6484C59.2458 38.9888 58.152 37.8038 57.6269 36.0938C50.6999 36.0254 43.7729 36.0026 36.8457 36.0254C36.8457 37.347 36.8457 38.6686 36.8457 39.9902C41.3576 39.9674 45.8694 39.9902 50.3808 40.0586C53.4342 41.8131 56.4876 43.5678 59.541 45.3223C61.6415 44.174 63.6923 44.2423 65.6933 45.5273C67.3602 47.1762 67.7932 49.1131 66.9921 51.3379C65.8259 53.5958 63.9802 54.5301 61.455 54.1406C59.5328 53.6312 58.2796 52.4236 57.6953 50.5176C57.5951 49.3629 57.6406 48.2234 57.832 47.0996C55.0411 45.5335 52.2839 43.9157 49.5605 42.2461C45.3225 42.1777 41.0842 42.1549 36.8457 42.1777C36.8457 43.4994 36.8457 44.8209 36.8457 46.1426C40.5373 46.1197 44.2287 46.1426 47.9199 46.2109C50.6411 46.4711 52.2134 47.9523 52.6367 50.6543C52.705 53.8896 52.7279 57.1253 52.705 60.3613C55.0722 60.9859 56.3482 62.5353 56.5332 65.0098C56.3165 67.502 55.0403 69.1426 52.705 69.9316C51.9302 69.9316 51.1556 69.9316 50.3808 69.9316C47.9973 69.1839 46.7213 67.5433 46.5527 65.0098C46.7456 62.6113 47.9761 61.0619 50.2441 60.3613C50.2669 56.9886 50.2441 53.6162 50.1757 50.2441C49.823 49.2361 49.1167 48.6664 48.0566 48.5352C44.3199 48.4668 40.5829 48.444 36.8457 48.4668C36.8457 48.7858 36.8457 49.1049 36.8457 49.4238C30.6653 48.961 26.3131 45.9077 23.789 40.2637C21.5837 33.483 23.2015 27.8091 28.6425 23.2422C31.0894 21.4771 33.8238 20.5428 36.8457 20.4395C36.8457 20.7129 36.8457 20.9863 36.8457 21.2598C40.7652 21.2826 44.6844 21.2598 48.6035 21.1914C49.4009 20.9408 49.9251 20.4166 50.1757 19.6191C50.2441 16.2471 50.2669 12.8747 50.2441 9.50195C47.9761 8.80143 46.7456 7.25196 46.5527 4.85352C46.7312 2.39121 47.9617 0.750582 50.2441 -0.0683594Z" fill="url(#paint0_linear_228_1634)"/>
<path opacity="0.985" fill-rule="evenodd" clip-rule="evenodd" d="M27.959 1.16211C30.5571 1.13933 33.1547 1.16211 35.752 1.23047C36.1613 1.28593 36.4576 1.49101 36.6406 1.8457C36.8435 7.71633 36.9119 13.5952 36.8457 19.4824C30.3274 19.9488 25.7018 23.1388 22.9688 29.0527C20.4883 36.4198 22.2428 42.5493 28.2324 47.4414C30.8079 49.2755 33.679 50.2553 36.8457 50.3809C36.8685 56.1232 36.8457 61.8654 36.7773 67.6074C36.7238 68.0114 36.5187 68.3077 36.1621 68.4961C33.291 68.5873 30.4199 68.5873 27.5488 68.4961C27.1923 68.3077 26.9872 68.0114 26.9336 67.6074C26.9108 65.5551 26.8424 63.5044 26.7285 61.4551C23.0482 60.1517 19.7442 58.2377 16.8164 55.7129C15.0633 56.7361 13.3087 57.7615 11.5527 58.7891C11.1341 58.8904 10.7239 58.8677 10.3223 58.7207C7.71285 54.2769 5.13799 49.8107 2.59766 45.3223C2.47071 44.8104 2.53907 44.3319 2.80273 43.8867C4.55793 42.8494 6.33527 41.8469 8.13477 40.8789C8.20612 40.8022 8.25169 40.711 8.27148 40.6055C7.85818 38.7067 7.63033 36.7927 7.58789 34.8633C7.67506 32.9128 7.88014 30.976 8.20312 29.0527C6.39188 28.0446 4.59175 27.0192 2.80273 25.9766C2.62998 25.7221 2.49326 25.4487 2.39258 25.1562C2.54118 24.6539 2.74626 24.1754 3.00781 23.7207C5.29557 19.8365 7.52865 15.9173 9.70703 11.9629C10.0386 11.1022 10.6538 10.806 11.5527 11.0742C13.3301 12.0996 15.1074 13.125 16.8848 14.1504C19.7798 11.6079 23.061 9.69385 26.7285 8.4082C26.8424 6.35894 26.9108 4.30815 26.9336 2.25586C27.0266 1.63919 27.3684 1.2746 27.959 1.16211Z" fill="url(#paint1_linear_228_1634)"/>
</g>
<defs>
<linearGradient id="paint0_linear_228_1634" x1="32.6545" y1="-0.0683619" x2="87.7859" y2="44.9372" gradientUnits="userSpaceOnUse">
<stop offset="0.404" stop-color="#65CDAA"/>
<stop offset="1" stop-color="#3E9175"/>
</linearGradient>
<linearGradient id="paint1_linear_228_1634" x1="9.99247" y1="1.15356" x2="59.7006" y2="33.7656" gradientUnits="userSpaceOnUse">
<stop offset="0.404" stop-color="#65CDAA"/>
<stop offset="1" stop-color="#3E9175"/>
</linearGradient>
<clipPath id="clip0_228_1634">
<rect width="70" height="70" fill="white"/>
</clipPath>
</defs>
</svg>
