<svg width="70" height="70" viewBox="0 0 70 70" fill="none" xmlns="http://www.w3.org/2000/svg">
<g clip-path="url(#clip0_228_1699)">
<path opacity="0.969" fill-rule="evenodd" clip-rule="evenodd" d="M69.9316 6.22068C69.9316 7.08656 69.9316 7.95246 69.9316 8.81834C68.648 12.4018 66.1415 13.7918 62.4121 12.9883C60.8106 12.4122 59.6713 11.3413 58.9941 9.77537C57.1735 9.63876 55.3506 9.59319 53.5254 9.63865C53.5482 14.1962 53.5254 18.7534 53.457 23.3105C53.2648 24.0041 52.832 24.4826 52.1582 24.7461C50.4264 24.8373 48.6947 24.8373 46.9629 24.7461C46.2924 23.3368 45.6088 21.9469 44.9121 20.5761C46.3705 20.5761 47.8287 20.5761 49.2871 20.5761C49.2643 16.0642 49.2871 11.5525 49.3555 7.04099C49.6502 6.06323 50.3111 5.53915 51.3379 5.46873C53.8912 5.44589 56.4432 5.37754 58.9941 5.26365C60.6137 2.28416 63.0746 1.25877 66.377 2.18748C68.2131 2.9706 69.3979 4.315 69.9316 6.22068Z" fill="url(#paint0_linear_228_1699)"/>
<path opacity="0.983" fill-rule="evenodd" clip-rule="evenodd" d="M-0.0683594 37.3926C-0.0683594 35.752 -0.0683594 34.1113 -0.0683594 32.4707C0.96022 25.0574 4.65162 19.3836 11.0059 15.4492C18.6921 11.316 26.3483 11.3616 33.9746 15.5859C40.9624 20.1015 44.6083 26.5501 44.9121 34.9316C44.4705 44.5957 39.9133 51.5 31.2402 55.6445C22.7199 58.8675 14.8814 57.6827 7.72461 52.0898C3.30694 48.1534 0.709282 43.2544 -0.0683594 37.3926ZM32.0605 27.2754C33.4328 27.2463 34.8 27.3146 36.1621 27.4805C39.4789 28.6113 40.8689 30.9127 40.332 34.3848C39.3131 37.3013 37.2395 38.714 34.1113 38.6231C34.134 39.3991 34.1112 40.1739 34.043 40.9473C33.581 42.1925 32.6923 42.671 31.377 42.3828C30.8454 42.079 30.4581 41.6462 30.2148 41.084C30.1237 36.9824 30.1237 32.8809 30.2148 28.7793C30.5773 27.9357 31.1925 27.4344 32.0605 27.2754ZM13.1934 27.4121C14.5841 27.1831 15.4727 27.73 15.8594 29.0527C15.9928 33.0716 15.9471 37.082 15.7227 41.084C14.9356 42.3495 13.9102 42.6002 12.6465 41.8359C11.4674 40.0931 10.3053 38.3385 9.16016 36.5723C9.11459 38.0762 9.06901 39.5801 9.02344 41.084C8.56287 42.2599 7.71977 42.6929 6.49414 42.3828C5.82043 42.1194 5.38748 41.6408 5.19531 40.9473C5.06187 36.8829 5.10744 32.8269 5.33203 28.7793C6.11327 27.5162 7.13866 27.2654 8.4082 28.0273C9.58729 29.7702 10.7494 31.5247 11.8945 33.291C11.9401 31.7871 11.9857 30.2832 12.0312 28.7793C12.3017 28.2136 12.689 27.7579 13.1934 27.4121ZM21.2598 27.4121C22.485 27.1701 23.3282 27.6259 23.7891 28.7793C23.8574 32.0146 23.8803 35.2503 23.8574 38.4863C25.2313 38.2519 26.2112 38.7532 26.7969 39.9902C26.9723 41.4099 26.357 42.2529 24.9512 42.5195C23.7135 42.6352 22.483 42.5897 21.2598 42.3828C20.586 42.1194 20.1532 41.6408 19.9609 40.9473C19.8697 36.9369 19.8697 32.9264 19.9609 28.916C20.1796 28.2196 20.6125 27.7182 21.2598 27.4121Z" fill="url(#paint1_linear_228_1699)"/>
<path opacity="0.971" fill-rule="evenodd" clip-rule="evenodd" d="M69.9316 33.7012C69.9316 34.567 69.9316 35.433 69.9316 36.2988C68.7176 39.7325 66.3022 41.1224 62.6855 40.4688C61.0055 39.9046 59.7751 38.8337 58.9941 37.2559C55.6229 37.1191 52.2506 37.0736 48.877 37.1191C49.0547 35.706 49.0547 34.2932 48.877 32.8809C52.2506 32.9264 55.6229 32.8809 58.9941 32.7441C60.0448 30.521 61.7995 29.336 64.2578 29.1895C67.1846 29.4089 69.0758 30.9128 69.9316 33.7012Z" fill="url(#paint2_linear_228_1699)"/>
<path opacity="0.909" fill-rule="evenodd" clip-rule="evenodd" d="M34.1113 31.3769C36.1113 31.0749 36.9087 31.8952 36.5039 33.8379C35.8504 34.4977 35.0528 34.7711 34.1113 34.6582C34.1113 33.5644 34.1113 32.4707 34.1113 31.3769Z" fill="url(#paint3_linear_228_1699)"/>
<path opacity="0.969" fill-rule="evenodd" clip-rule="evenodd" d="M69.9316 61.0449C69.9316 61.9107 69.9316 62.7767 69.9316 63.6426C68.7176 67.0762 66.3022 68.4661 62.6855 67.8125C61.0055 67.2484 59.7751 66.1775 58.9941 64.5996C56.2609 64.4857 53.5265 64.4173 50.791 64.3945C50.0391 64.1894 49.5605 63.7109 49.3555 62.959C49.2871 58.4018 49.2643 53.8446 49.2871 49.2871C47.7825 49.3099 46.2786 49.2871 44.7754 49.2187C45.611 47.9124 46.3401 46.5452 46.9629 45.1172C48.558 45.026 50.1529 45.026 51.748 45.1172C52.464 45.2402 52.9882 45.6277 53.3203 46.2793C53.5225 50.9192 53.5909 55.5677 53.5254 60.2246C55.3506 60.2701 57.1735 60.2244 58.9941 60.0879C60.0448 57.8647 61.7995 56.6797 64.2578 56.5332C67.1858 56.751 69.077 58.2549 69.9316 61.0449Z" fill="url(#paint4_linear_228_1699)"/>
</g>
<defs>
<linearGradient id="paint0_linear_228_1699" x1="50.4272" y1="1.85644" x2="67.893" y2="26.2727" gradientUnits="userSpaceOnUse">
<stop offset="0.404" stop-color="#65CDAA"/>
<stop offset="1" stop-color="#3E9175"/>
</linearGradient>
<linearGradient id="paint1_linear_228_1699" x1="9.84669" y1="12.3831" x2="44.9591" y2="57.3754" gradientUnits="userSpaceOnUse">
<stop offset="0.404" stop-color="#65CDAA"/>
<stop offset="1" stop-color="#3E9175"/>
</linearGradient>
<linearGradient id="paint2_linear_228_1699" x1="53.518" y1="29.1895" x2="60.1197" y2="44.7803" gradientUnits="userSpaceOnUse">
<stop offset="0.404" stop-color="#65CDAA"/>
<stop offset="1" stop-color="#3E9175"/>
</linearGradient>
<linearGradient id="paint3_linear_228_1699" x1="34.6613" y1="31.316" x2="37.3644" y2="33.8852" gradientUnits="userSpaceOnUse">
<stop offset="0.404" stop-color="#65CDAA"/>
<stop offset="1" stop-color="#3E9175"/>
</linearGradient>
<linearGradient id="paint4_linear_228_1699" x1="50.3206" y1="45.0488" x2="67.7177" y2="69.5418" gradientUnits="userSpaceOnUse">
<stop offset="0.404" stop-color="#65CDAA"/>
<stop offset="1" stop-color="#3E9175"/>
</linearGradient>
<clipPath id="clip0_228_1699">
<rect width="70" height="70" fill="white"/>
</clipPath>
</defs>
</svg>
