<svg width="70" height="70" viewBox="0 0 70 70" fill="none" xmlns="http://www.w3.org/2000/svg">
<path opacity="0.955" fill-rule="evenodd" clip-rule="evenodd" d="M15.9278 3.48635C17.79 3.41384 19.0661 4.23415 19.756 5.94729C23.6407 6.01781 27.5143 6.13174 31.3771 6.28909C31.4626 6.39168 31.531 6.50562 31.5821 6.63088C31.6505 10.6866 31.6733 14.7425 31.6505 18.7989C30.9694 18.8745 30.2858 18.9201 29.5997 18.9356C29.6225 15.3351 29.5997 11.7348 29.5314 8.13479C26.3284 7.97614 23.1156 7.95335 19.8927 8.06643C18.8479 10.2518 17.1616 10.981 14.8341 10.2539C12.8612 8.98176 12.3827 7.27278 13.3985 5.12698C14.0367 4.25047 14.8799 3.7036 15.9278 3.48635Z" fill="url(#paint0_linear_228_1588)"/>
<path opacity="0.954" fill-rule="evenodd" clip-rule="evenodd" d="M52.9785 3.48633C55.9774 3.60365 57.2763 5.15312 56.875 8.13477C55.9949 10.1812 54.4682 10.9332 52.2949 10.3906C51.1544 9.97499 50.3796 9.20024 49.9707 8.06641C46.7478 7.95333 43.5349 7.97612 40.332 8.13477C40.2637 11.7347 40.2408 15.3351 40.2637 18.9355C39.5776 18.9201 38.894 18.8744 38.2129 18.7988C38.1467 14.6397 38.2151 10.4926 38.418 6.35742C38.5205 6.27186 38.6345 6.2035 38.7598 6.15234C42.5432 6.12954 46.3256 6.06118 50.1074 5.94727C50.6533 4.62525 51.6104 3.80494 52.9785 3.48633Z" fill="url(#paint1_linear_228_1588)"/>
<path opacity="0.943" fill-rule="evenodd" clip-rule="evenodd" d="M7.99816 12.2363C9.6388 12.3511 10.7781 13.1714 11.4161 14.6973C14.1494 14.8112 16.8838 14.8795 19.6193 14.9023C19.7788 15.0619 19.9382 15.2213 20.0978 15.3809C20.189 17.5228 20.189 19.6647 20.0978 21.8066C19.5054 22.1256 18.9128 22.4447 18.3204 22.7637C18.1178 20.8255 18.0494 18.866 18.1153 16.8848C15.8818 16.8619 13.6487 16.8848 11.4161 16.9531C10.5045 18.9906 8.95507 19.7198 6.76769 19.1406C4.74808 18.1405 4.08728 16.5683 4.78527 14.4238C5.43532 13.0661 6.50628 12.3369 7.99816 12.2363Z" fill="url(#paint2_linear_228_1588)"/>
<path opacity="0.943" fill-rule="evenodd" clip-rule="evenodd" d="M61.7285 12.2363C64.6788 12.7035 65.7952 14.3896 65.0782 17.2949C63.9464 19.2135 62.3286 19.7832 60.2246 19.0039C59.3382 18.5732 58.7456 17.8896 58.4473 16.9531C56.2147 16.8848 53.9817 16.8619 51.7481 16.8848C51.814 18.866 51.7456 20.8255 51.543 22.7637C50.9506 22.4447 50.3581 22.1256 49.7657 21.8066C49.6745 19.6647 49.6745 17.5228 49.7657 15.3809C49.9252 15.2213 50.0846 15.0619 50.2442 14.9023C52.9796 14.8795 55.714 14.8112 58.4473 14.6973C59.0636 13.2075 60.1574 12.3872 61.7285 12.2363Z" fill="url(#paint3_linear_228_1588)"/>
<path opacity="0.974" fill-rule="evenodd" clip-rule="evenodd" d="M32.0605 20.4395C40.4934 19.8263 48.1042 21.991 54.8925 26.9336C57.5629 29.022 59.7732 31.5058 61.5234 34.3848C61.7968 34.7494 61.7968 35.1139 61.5234 35.4785C57.0998 42.2654 50.9247 46.6176 42.998 48.5352C33.0624 50.7496 23.9022 49.0178 15.5175 43.3399C12.5934 41.191 10.2008 38.5706 8.33979 35.4785C8.16187 35.2235 8.1163 34.9501 8.20307 34.6582C12.0379 28.4649 17.4383 24.2493 24.4042 22.0117C26.9238 21.2356 29.4758 20.7114 32.0605 20.4395ZM32.7441 22.9004C32.8808 22.9004 33.0175 22.9004 33.1542 22.9004C33.1542 24.3131 33.1542 25.726 33.1542 27.1387C28.9228 28.4335 26.8948 31.3046 27.0703 35.752C27.7767 39.7396 30.1236 42.0866 34.1113 42.793C38.5586 42.9684 41.4297 40.9404 42.7246 36.709C44.1403 36.6636 45.553 36.7091 46.9628 36.8457C45.8971 41.6712 43.026 44.8841 38.3496 46.4844C32.9784 47.7324 28.5806 46.2056 25.1562 41.9043C22.1484 37.2103 22.1484 32.5162 25.1562 27.8223C27.1021 25.2667 29.6314 23.6261 32.7441 22.9004ZM36.8457 22.9004C41.4282 23.7684 44.5956 26.3661 46.3476 30.6934C46.5955 31.4118 46.8006 32.141 46.9628 32.8809C45.553 33.0175 44.1403 33.063 42.7246 33.0176C41.9042 29.9186 39.9447 27.959 36.8457 27.1387C36.8457 25.726 36.8457 24.3131 36.8457 22.9004ZM34.1113 31.377C37.1844 31.2371 38.62 32.6955 38.4179 35.752C37.383 38.2171 35.6283 38.9234 33.1542 37.8711C31.4377 36.5834 31.0504 34.9656 31.9921 33.0176C32.5417 32.2546 33.248 31.7077 34.1113 31.377Z" fill="url(#paint4_linear_228_1588)"/>
<path opacity="0.942" fill-rule="evenodd" clip-rule="evenodd" d="M18.252 47.0996C18.8743 47.3994 19.4895 47.7184 20.0977 48.0566C20.1888 50.1986 20.1888 52.3404 20.0977 54.4824C19.9381 54.642 19.7787 54.8014 19.6191 54.9609C16.8837 54.9838 14.1493 55.0521 11.416 55.166C10.4431 57.2901 8.84803 57.9965 6.63086 57.2852C5.25763 56.6378 4.52847 55.544 4.44336 54.0039C4.89818 51.2472 6.49322 50.1535 9.22852 50.7227C10.3223 51.0873 11.0514 51.8164 11.416 52.9102C13.6486 52.9785 15.8817 53.0013 18.1152 52.9785C18.072 51.0081 18.1177 49.0485 18.252 47.0996Z" fill="url(#paint5_linear_228_1588)"/>
<path opacity="0.943" fill-rule="evenodd" clip-rule="evenodd" d="M51.4746 47.0996C51.559 47.1148 51.6274 47.1603 51.6797 47.2363C51.7481 49.1498 51.7709 51.0639 51.7481 52.9785C53.9817 53.0013 56.2147 52.9785 58.4473 52.9102C59.3589 50.8726 60.9084 50.1435 63.0957 50.7227C65.1162 51.7259 65.7771 53.2982 65.0782 55.4395C64.009 57.3452 62.4368 57.9604 60.3614 57.2852C59.4608 56.8174 58.8229 56.1112 58.4473 55.166C55.714 55.0521 52.9796 54.9838 50.2442 54.9609C50.0846 54.8014 49.9252 54.642 49.7657 54.4824C49.6745 52.3404 49.6745 50.1986 49.7657 48.0566C50.3549 47.7512 50.9245 47.4321 51.4746 47.0996Z" fill="url(#paint6_linear_228_1588)"/>
<path opacity="0.955" fill-rule="evenodd" clip-rule="evenodd" d="M29.5996 50.9277C30.2856 50.9432 30.9692 50.9888 31.6504 51.0645C31.7165 55.2236 31.6482 59.3707 31.4453 63.5059C31.3428 63.5914 31.2287 63.6598 31.1035 63.7109C27.3201 63.7338 23.5376 63.8021 19.7558 63.916C18.4048 66.4698 16.4907 66.9938 14.0136 65.4883C12.9844 64.4342 12.6426 63.1809 12.9883 61.7285C13.8683 59.6821 15.3951 58.9302 17.5683 59.4727C18.7088 59.8883 19.4836 60.6631 19.8926 61.7969C23.1154 61.9099 26.3283 61.8871 29.5312 61.7285C29.5996 58.1286 29.6224 54.5282 29.5996 50.9277Z" fill="url(#paint7_linear_228_1588)"/>
<path opacity="0.955" fill-rule="evenodd" clip-rule="evenodd" d="M39.0332 50.9277C39.4434 50.9277 39.8535 50.9277 40.2637 50.9277C40.2408 54.5282 40.2637 58.1286 40.332 61.7285C43.5349 61.8871 46.7478 61.9099 49.9707 61.7969C51.2745 59.2603 53.1885 58.6679 55.7129 60.0195C56.812 61.0389 57.1993 62.2922 56.875 63.7793C56.2994 65.368 55.16 66.2338 53.457 66.377C51.816 66.2617 50.6994 65.4414 50.1074 63.916C46.3256 63.8021 42.5432 63.7338 38.7598 63.7109C38.6345 63.6598 38.5205 63.5914 38.418 63.5059C38.2151 59.3707 38.1467 55.2236 38.2129 51.0645C38.5185 51.1048 38.7919 51.0591 39.0332 50.9277Z" fill="url(#paint8_linear_228_1588)"/>
<defs>
<linearGradient id="paint0_linear_228_1588" x1="17.02" y1="3.48193" x2="28.3118" y2="21.083" gradientUnits="userSpaceOnUse">
<stop offset="0.404" stop-color="#65CDAA"/>
<stop offset="1" stop-color="#3E9175"/>
</linearGradient>
<linearGradient id="paint1_linear_228_1588" x1="42.3232" y1="3.48633" x2="53.6157" y2="21.0739" gradientUnits="userSpaceOnUse">
<stop offset="0.404" stop-color="#65CDAA"/>
<stop offset="1" stop-color="#3E9175"/>
</linearGradient>
<linearGradient id="paint2_linear_228_1588" x1="7.96605" y1="12.2363" x2="14.9273" y2="25.5109" gradientUnits="userSpaceOnUse">
<stop offset="0.404" stop-color="#65CDAA"/>
<stop offset="1" stop-color="#3E9175"/>
</linearGradient>
<linearGradient id="paint3_linear_228_1588" x1="53.134" y1="12.2363" x2="60.1101" y2="25.4894" gradientUnits="userSpaceOnUse">
<stop offset="0.404" stop-color="#65CDAA"/>
<stop offset="1" stop-color="#3E9175"/>
</linearGradient>
<linearGradient id="paint4_linear_228_1588" x1="19.9684" y1="20.338" x2="36.7969" y2="60.036" gradientUnits="userSpaceOnUse">
<stop offset="0.404" stop-color="#65CDAA"/>
<stop offset="1" stop-color="#3E9175"/>
</linearGradient>
<linearGradient id="paint5_linear_228_1588" x1="7.90911" y1="47.0996" x2="14.7752" y2="60.3469" gradientUnits="userSpaceOnUse">
<stop offset="0.404" stop-color="#65CDAA"/>
<stop offset="1" stop-color="#3E9175"/>
</linearGradient>
<linearGradient id="paint6_linear_228_1588" x1="53.1471" y1="47.0996" x2="60.0286" y2="60.319" gradientUnits="userSpaceOnUse">
<stop offset="0.404" stop-color="#65CDAA"/>
<stop offset="1" stop-color="#3E9175"/>
</linearGradient>
<linearGradient id="paint7_linear_228_1588" x1="17.0057" y1="50.9277" x2="28.2304" y2="68.5231" gradientUnits="userSpaceOnUse">
<stop offset="0.404" stop-color="#65CDAA"/>
<stop offset="1" stop-color="#3E9175"/>
</linearGradient>
<linearGradient id="paint8_linear_228_1588" x1="42.332" y1="50.9277" x2="53.6145" y2="68.537" gradientUnits="userSpaceOnUse">
<stop offset="0.404" stop-color="#65CDAA"/>
<stop offset="1" stop-color="#3E9175"/>
</linearGradient>
</defs>
</svg>
