<svg width="70" height="70" viewBox="0 0 70 70" fill="none" xmlns="http://www.w3.org/2000/svg">
<path opacity="0.932" fill-rule="evenodd" clip-rule="evenodd" d="M48.3302 2.25585C48.6705 2.2282 48.9896 2.29656 49.2872 2.46093C51.1785 4.3522 53.0698 6.24348 54.9611 8.13475C55.4329 9.08681 55.1594 9.67927 54.1407 9.9121C53.9183 9.89499 53.7132 9.82663 53.5255 9.70702C52.2722 8.45376 51.019 7.20051 49.7657 5.94725C49.7202 11.2793 49.6745 16.6113 49.629 21.9433C48.4584 34.4319 42.5568 43.9339 31.9239 50.4492C24.6351 54.5687 16.9104 55.9586 8.75012 54.6191C8.56169 54.0057 8.7212 53.5272 9.22863 53.1836C17.4319 53.8326 25.0425 52.0552 32.0607 47.8516C41.777 41.344 46.9495 32.2066 47.5782 20.4394C47.6921 15.6536 47.6694 10.8685 47.5099 6.08397C46.2586 7.26689 45.0282 8.47458 43.8185 9.70702C42.4524 10.1178 41.9283 9.63925 42.2462 8.27147C44.2598 6.23495 46.2879 4.22974 48.3302 2.25585Z" fill="url(#paint0_linear_228_1651)"/>
<path opacity="0.974" fill-rule="evenodd" clip-rule="evenodd" d="M23.0371 10.0488C24.1939 9.98725 25.3332 10.0784 26.4551 10.3223C26.4551 15.8366 26.4551 21.351 26.4551 26.8652C24.4933 26.9108 22.5337 26.8651 20.5762 26.7285C20.0289 24.6546 18.7301 23.3331 16.6797 22.7637C16.1304 22.8111 15.7886 23.1074 15.6543 23.6524C15.7404 23.911 15.8771 24.1389 16.0645 24.3359C18.3325 25.1453 19.1756 26.7176 18.5938 29.0527C18.4461 29.394 18.2637 29.7131 18.0469 30.0098C17.3843 30.6139 16.6552 31.1153 15.8594 31.5137C15.6071 32.0774 15.7665 32.5102 16.3379 32.8125C18.0359 32.5759 19.2892 31.6872 20.0977 30.1465C20.2784 29.7176 20.4378 29.2846 20.5762 28.8477C22.5352 28.7793 24.4949 28.7565 26.4551 28.7793C26.4779 34.2482 26.4551 39.7169 26.3867 45.1856C23.5192 46.1286 21.2406 45.3539 19.5508 42.8613C19.1596 41.8394 18.8178 40.814 18.5254 39.7852C18.3574 39.6784 18.1751 39.61 17.9785 39.5801C16.5271 40.4503 15.0687 40.4731 13.6035 39.6484C12.3975 38.628 11.9873 37.352 12.373 35.8203C12.2904 35.4829 12.1081 35.2095 11.8262 35C9.32803 35.1207 7.8697 33.9586 7.45117 31.5137C7.5727 30.0934 8.23352 28.9997 9.43359 28.2324C9.52474 27.959 9.52474 27.6856 9.43359 27.4121C7.34918 25.8667 6.98459 23.9983 8.33984 21.8067C9.26886 20.9044 10.3854 20.5171 11.6895 20.6445C12.3882 20.1919 12.5705 19.5766 12.2363 18.7988C12.3275 16.6113 13.4668 15.4721 15.6543 15.3809C16.5051 15.3608 17.2799 15.5887 17.9785 16.0645C18.4293 15.9554 18.7255 15.6819 18.8672 15.2442C19.128 12.5921 20.5181 10.8603 23.0371 10.0488Z" fill="url(#paint1_linear_228_1651)"/>
<path opacity="0.977" fill-rule="evenodd" clip-rule="evenodd" d="M54.3457 12.0996C56.7616 12.0768 59.1768 12.0996 61.5918 12.168C62.0077 12.2438 62.2583 12.4944 62.3438 12.9199C62.435 30.8756 62.435 48.8314 62.3438 66.7871C62.2583 67.2126 62.0077 67.4632 61.5918 67.5391C59.1764 67.6302 56.7611 67.6302 54.3457 67.5391C54.0495 67.4252 53.8444 67.2201 53.7305 66.9238C53.6393 48.8769 53.6393 30.8301 53.7305 12.7832C53.8706 12.4842 54.0757 12.2563 54.3457 12.0996Z" fill="url(#paint2_linear_228_1651)"/>
<path opacity="0.951" fill-rule="evenodd" clip-rule="evenodd" d="M28.2324 13.4668C28.7254 13.4272 29.2039 13.4728 29.6679 13.6035C30.0145 14.5977 30.3335 15.6003 30.625 16.6113C30.7332 16.8966 30.8928 17.1474 31.1035 17.3633C32.3916 17.8786 33.5764 18.5621 34.6582 19.414C35.9462 19.3253 37.2223 19.1202 38.4863 18.7988C38.623 18.8443 38.7597 18.89 38.8964 18.9355C39.617 20.149 40.3005 21.3795 40.9472 22.6269C40.2613 23.538 39.5094 24.404 38.6914 25.2246C38.5393 25.483 38.4253 25.7564 38.3496 26.0449C38.497 27.4126 38.5198 28.7798 38.4179 30.1465C39.2914 31.1784 40.1344 32.2266 40.9472 33.291C40.3005 34.5384 39.617 35.7689 38.8964 36.9824C38.7826 37.0279 38.6685 37.0736 38.5546 37.1191C37.4223 36.8562 36.2829 36.6283 35.1367 36.4355C34.8678 36.4413 34.617 36.5096 34.3847 36.6406C33.207 37.4456 31.9993 38.1976 30.7617 38.8965C30.3731 40.0623 29.9857 41.2244 29.5996 42.3828C29.1461 42.4509 28.6904 42.4737 28.2324 42.4512C28.1869 40.2617 28.2325 38.0742 28.3691 35.8887C32.6347 34.9499 34.9589 32.3068 35.3418 27.959C34.9364 23.5436 32.5665 20.9003 28.2324 20.0293C28.2324 17.8418 28.2324 15.6543 28.2324 13.4668Z" fill="url(#paint3_linear_228_1651)"/>
<path opacity="0.988" fill-rule="evenodd" clip-rule="evenodd" d="M39.5801 46.9629C42.087 46.9401 44.5936 46.9629 47.0996 47.0313C47.3502 47.0996 47.5098 47.2592 47.5782 47.5098C47.6694 54.0268 47.6694 60.5436 47.5782 67.0606C47.4122 67.2723 47.2071 67.4318 46.9629 67.5391C44.5475 67.6303 42.1322 67.6303 39.7168 67.5391C39.4727 67.4318 39.2676 67.2723 39.1016 67.0606C39.0104 60.5436 39.0104 54.0268 39.1016 47.5098C39.1959 47.2569 39.3553 47.0745 39.5801 46.9629Z" fill="url(#paint4_linear_228_1651)"/>
<path opacity="0.969" fill-rule="evenodd" clip-rule="evenodd" d="M24.9512 56.6699C27.4581 56.6471 29.9647 56.6699 32.4707 56.7383C32.596 56.7894 32.71 56.8578 32.8125 56.9434C33.0377 60.3038 33.0832 63.6762 32.9493 67.0606C32.8354 67.1745 32.7213 67.2885 32.6075 67.4024C30.1133 67.6266 27.6068 67.6721 25.0879 67.5391C24.6404 67.4106 24.3898 67.1143 24.336 66.6504C24.2448 63.6426 24.2448 60.6348 24.336 57.627C24.3558 57.1768 24.5609 56.8578 24.9512 56.6699Z" fill="url(#paint5_linear_228_1651)"/>
<path opacity="0.965" fill-rule="evenodd" clip-rule="evenodd" d="M10.1856 58.584C12.7381 58.5612 15.2901 58.584 17.8419 58.6524C18.0014 58.8119 18.1608 58.9713 18.3204 59.1309C18.4116 61.7285 18.4116 64.3262 18.3204 66.9238C18.2568 67.1195 18.1428 67.2789 17.9786 67.4024C15.4389 67.6266 12.8868 67.6722 10.3223 67.5391C10.1267 67.4755 9.96719 67.3615 9.84381 67.1973C9.62108 64.563 9.57551 61.9197 9.70709 59.2676C9.84344 59.0184 10.0029 58.7904 10.1856 58.584Z" fill="url(#paint6_linear_228_1651)"/>
<defs>
<linearGradient id="paint0_linear_228_1651" x1="18.9261" y1="2.24988" x2="61.1109" y2="49.8618" gradientUnits="userSpaceOnUse">
<stop offset="0.404" stop-color="#65CDAA"/>
<stop offset="1" stop-color="#3E9175"/>
</linearGradient>
<linearGradient id="paint1_linear_228_1651" x1="11.6421" y1="10.0302" x2="38.3009" y2="28.3223" gradientUnits="userSpaceOnUse">
<stop offset="0.404" stop-color="#65CDAA"/>
<stop offset="1" stop-color="#3E9175"/>
</linearGradient>
<linearGradient id="paint2_linear_228_1651" x1="55.5909" y1="12.0911" x2="72.9277" y2="15.5962" gradientUnits="userSpaceOnUse">
<stop offset="0.404" stop-color="#65CDAA"/>
<stop offset="1" stop-color="#3E9175"/>
</linearGradient>
<linearGradient id="paint3_linear_228_1651" x1="31.0218" y1="13.453" x2="50.9588" y2="24.6784" gradientUnits="userSpaceOnUse">
<stop offset="0.404" stop-color="#65CDAA"/>
<stop offset="1" stop-color="#3E9175"/>
</linearGradient>
<linearGradient id="paint4_linear_228_1651" x1="40.9318" y1="46.9543" x2="54.7428" y2="54.3428" gradientUnits="userSpaceOnUse">
<stop offset="0.404" stop-color="#65CDAA"/>
<stop offset="1" stop-color="#3E9175"/>
</linearGradient>
<linearGradient id="paint5_linear_228_1651" x1="26.1978" y1="56.6614" x2="34.9989" y2="65.6881" gradientUnits="userSpaceOnUse">
<stop offset="0.404" stop-color="#65CDAA"/>
<stop offset="1" stop-color="#3E9175"/>
</linearGradient>
<linearGradient id="paint6_linear_228_1651" x1="11.5636" y1="58.5754" x2="18.6609" y2="67.3944" gradientUnits="userSpaceOnUse">
<stop offset="0.404" stop-color="#65CDAA"/>
<stop offset="1" stop-color="#3E9175"/>
</linearGradient>
</defs>
</svg>
