<svg width="70" height="70" viewBox="0 0 70 70" fill="none" xmlns="http://www.w3.org/2000/svg">
<g clip-path="url(#clip0_228_1619)">
<path opacity="0.976" fill-rule="evenodd" clip-rule="evenodd" d="M33.9746 -0.0683594C34.6127 -0.0683594 35.2506 -0.0683594 35.8887 -0.0683594C38.2229 1.06081 38.7924 2.79258 37.5977 5.12695C37.1885 5.62688 36.6871 5.99147 36.0938 6.2207C36.0254 9.31932 36.0026 12.4183 36.0254 15.5176C37.0736 15.5176 38.1217 15.5176 39.1699 15.5176C39.2381 14.6982 39.3065 13.8779 39.375 13.0566C39.4741 12.7218 39.6108 12.4028 39.7852 12.0996C40.8715 11.0133 41.9653 9.91951 43.0664 8.81836C42.7313 7.7423 42.8225 6.69412 43.3398 5.67383C44.5569 4.09947 46.0835 3.71209 47.9199 4.51172C49.452 5.606 49.885 7.04155 49.2188 8.81836C48.5956 9.98503 47.6159 10.5775 46.2793 10.5957C45.757 10.5795 45.2557 10.5111 44.7754 10.3906C43.75 11.416 42.7246 12.4414 41.6992 13.4668C41.6157 14.1498 41.5473 14.8334 41.4941 15.5176C45.1403 15.4947 48.786 15.5176 52.4316 15.5859C53.3463 15.8629 53.8703 16.4782 54.0039 17.4316C54.0723 21.0772 54.0951 24.723 54.0723 28.3691C54.8577 28.4087 55.6325 28.3403 56.3965 28.1641C57.4219 27.1387 58.4473 26.1133 59.4727 25.0879C58.7807 22.3676 59.8061 20.7725 62.5488 20.3027C65.4062 20.9129 66.3404 22.5991 65.3516 25.3613C64.6868 26.4005 63.7298 26.9474 62.4805 27.002C62.0011 26.8782 61.5226 26.8099 61.0449 26.7969C59.9438 27.898 58.85 28.9918 57.7637 30.0781C57.4606 30.2524 57.1415 30.3892 56.8066 30.4883C55.898 30.6019 54.9865 30.6703 54.0723 30.6934C54.0723 31.7416 54.0723 32.7897 54.0723 33.8379C57.2627 33.8607 60.4528 33.8379 63.6426 33.7695C64.4101 32.0532 65.7318 31.3696 67.6074 31.7188C68.7263 32.1315 69.5011 32.8835 69.9316 33.9746C69.9316 34.6127 69.9316 35.2506 69.9316 35.8887C68.9887 37.9135 67.4391 38.5742 65.2832 37.8711C64.4967 37.4948 63.9498 36.9024 63.6426 36.0938C60.4528 36.0254 57.2627 36.0026 54.0723 36.0254C54.0292 37.1082 54.0747 38.1791 54.209 39.2383C55.0748 39.2838 55.9408 39.3295 56.8066 39.375C57.1415 39.4741 57.4606 39.6108 57.7637 39.7852C58.85 40.8715 59.9438 41.9653 61.0449 43.0664C62.1131 42.8997 63.1613 42.9908 64.1895 43.3398C65.7638 44.5569 66.1512 46.0835 65.3516 47.9199C64.2573 49.452 62.8217 49.885 61.0449 49.2188C59.8585 48.579 59.2661 47.5765 59.2676 46.2109C59.2874 45.7116 59.3558 45.2331 59.4727 44.7754C58.4473 43.75 57.4219 42.7246 56.3965 41.6992C55.6292 41.5446 54.8544 41.4762 54.0723 41.4941C54.0951 45.1403 54.0723 48.786 54.0039 52.4316C53.8703 53.3851 53.3463 54.0004 52.4316 54.2773C48.786 54.3457 45.1403 54.3685 41.4941 54.3457C41.4723 55.0383 41.5406 55.7219 41.6992 56.3965C42.7246 57.4219 43.75 58.4473 44.7754 59.4727C46.0858 59.0743 47.3163 59.2565 48.4668 60.0195C49.6275 61.2676 49.8326 62.6577 49.082 64.1895C47.865 65.7638 46.3384 66.1512 44.502 65.3516C43.4425 64.6692 42.8956 63.6895 42.8613 62.4121C42.9766 61.9544 43.0449 61.4987 43.0664 61.0449C41.9653 59.9438 40.8715 58.85 39.7852 57.7637C39.3243 56.6762 39.1192 55.5368 39.1699 54.3457C38.1217 54.3457 37.0736 54.3457 36.0254 54.3457C36.0026 57.445 36.0254 60.544 36.0938 63.6426C37.8101 64.4101 38.4937 65.7318 38.1445 67.6074C37.8442 68.7042 37.1833 69.479 36.1621 69.9316C35.3418 69.9316 34.5215 69.9316 33.7012 69.9316C31.5741 68.6752 31.0956 66.9434 32.2656 64.7363C32.6748 64.2364 33.1762 63.8719 33.7695 63.6426C33.8379 60.544 33.8607 57.445 33.8379 54.3457C32.7897 54.3457 31.7416 54.3457 30.6934 54.3457C30.6251 55.1651 30.5568 55.9854 30.4883 56.8066C30.3892 57.1415 30.2524 57.4606 30.0781 57.7637C28.9918 58.85 27.898 59.9438 26.7969 61.0449C27.1208 62.1195 27.0296 63.1678 26.5234 64.1895C25.4166 65.685 23.981 66.1179 22.2168 65.4883C20.4509 64.4571 19.9268 62.9759 20.6445 61.0449C21.2842 59.8585 22.2868 59.2661 23.6523 59.2676C24.1516 59.2874 24.6302 59.3558 25.0879 59.4727C26.1133 58.4473 27.1387 57.4219 28.1641 56.3965C28.2476 55.7134 28.316 55.0298 28.3691 54.3457C24.723 54.3685 21.0772 54.3457 17.4316 54.2773C16.517 54.0004 15.9929 53.3851 15.8594 52.4316C15.791 48.786 15.7682 45.1403 15.791 41.4941C15.0056 41.4546 14.2308 41.523 13.4668 41.6992C12.4414 42.7246 11.416 43.75 10.3906 44.7754C10.8233 46.1661 10.5954 47.4421 9.70703 48.6035C8.35503 49.7209 6.91949 49.8349 5.40039 48.9453C4.06764 47.6707 3.77141 46.1896 4.51172 44.502C4.96602 43.7392 5.62682 43.2607 6.49414 43.0664C7.27394 43.0041 8.04869 43.0041 8.81836 43.0664C9.91951 41.9653 11.0133 40.8715 12.0996 39.7852C12.4028 39.6108 12.7218 39.4741 13.0566 39.375C13.9653 39.2614 14.8768 39.193 15.791 39.1699C15.791 38.1217 15.791 37.0736 15.791 36.0254C12.6006 36.0026 9.41049 36.0254 6.2207 36.0938C5.49336 37.774 4.21732 38.4576 2.39258 38.1445C1.19554 37.7902 0.375231 37.0382 -0.0683594 35.8887C-0.0683594 35.2506 -0.0683594 34.6127 -0.0683594 33.9746C1.06081 31.6404 2.79258 31.0708 5.12695 32.2656C5.62688 32.6748 5.99147 33.1762 6.2207 33.7695C9.41049 33.8379 12.6006 33.8607 15.791 33.8379C15.8341 32.7551 15.7886 31.6842 15.6543 30.625C14.7885 30.5795 13.9225 30.5338 13.0566 30.4883C12.7218 30.3892 12.4028 30.2524 12.0996 30.0781C11.0133 28.9918 9.91951 27.898 8.81836 26.7969C7.74374 27.1208 6.69557 27.0296 5.67383 26.5234C4.1784 25.4177 3.74546 23.9821 4.375 22.2168C5.28753 20.6363 6.63193 20.0668 8.4082 20.5078C10.3929 21.4476 11.0537 22.9744 10.3906 25.0879C11.416 26.1133 12.4414 27.1387 13.4668 28.1641C14.2341 28.3187 15.0088 28.3871 15.791 28.3691C15.7682 24.723 15.791 21.0772 15.8594 17.4316C15.9929 16.4782 16.517 15.8629 17.4316 15.5859C21.0772 15.5176 24.723 15.4947 28.3691 15.5176C28.391 14.825 28.3227 14.1414 28.1641 13.4668C27.1387 12.4414 26.1133 11.416 25.0879 10.3906C23.7743 10.8012 22.5438 10.6189 21.3965 9.84375C20.1604 8.48259 20.001 7.00148 20.918 5.40039C22.1926 4.06764 23.6737 3.77141 25.3613 4.51172C26.4005 5.1764 26.9474 6.13344 27.002 7.38281C26.8782 7.86208 26.8099 8.3406 26.7969 8.81836C27.898 9.91951 28.9918 11.0133 30.0781 12.0996C30.539 13.1871 30.7441 14.3265 30.6934 15.5176C31.7416 15.5176 32.7897 15.5176 33.8379 15.5176C33.8607 12.4183 33.8379 9.31932 33.7695 6.2207C31.9173 5.31698 31.2792 3.85865 31.8555 1.8457C32.3329 0.934393 33.0393 0.296372 33.9746 -0.0683594ZM29.3262 22.627C30.3445 22.6624 31.0509 23.1637 31.4453 24.1309C31.6378 24.6172 31.7745 25.1185 31.8555 25.6348C31.9467 31.8326 31.9467 38.0306 31.8555 44.2285C31.7583 45.4953 31.1886 46.4752 30.1465 47.168C29.3906 47.2803 28.7753 47.0297 28.3008 46.416C27.7501 45.4891 27.4538 44.4865 27.4121 43.4082C25.8945 43.0248 24.7324 42.159 23.9258 40.8105C21.9384 37.0755 21.8472 33.2931 23.6523 29.4629C24.4444 27.8723 25.6977 26.8696 27.4121 26.4551C27.4538 25.3769 27.7499 24.3744 28.3008 23.4473C28.5898 23.0889 28.9316 22.8155 29.3262 22.627ZM39.7168 22.627C40.9698 22.6703 41.7673 23.3084 42.1094 24.541C42.2677 25.1724 42.3817 25.8103 42.4512 26.4551C43.9688 26.8384 45.1309 27.7043 45.9375 29.0527C47.9248 32.7878 48.016 36.5702 46.2109 40.4004C45.4189 41.991 44.1656 42.9937 42.4512 43.4082C42.4095 44.4864 42.1133 45.4889 41.5625 46.416C40.2261 47.6585 39.1779 47.4306 38.418 45.7324C38.2255 45.2461 38.0887 44.7448 38.0078 44.2285C37.9166 38.0306 37.9166 31.8326 38.0078 25.6348C38.1228 24.3548 38.6925 23.3521 39.7168 22.627Z" fill="url(#paint0_linear_228_1619)"/>
</g>
<defs>
<linearGradient id="paint0_linear_228_1619" x1="15.3618" y1="-0.0683619" x2="69.9316" y2="69.9316" gradientUnits="userSpaceOnUse">
<stop offset="0.404" stop-color="#65CDAA"/>
<stop offset="1" stop-color="#3E9175"/>
</linearGradient>
<clipPath id="clip0_228_1619">
<rect width="70" height="70" fill="white"/>
</clipPath>
</defs>
</svg>
