<svg width="70" height="70" viewBox="0 0 70 70" fill="none" xmlns="http://www.w3.org/2000/svg">
<path opacity="0.98" fill-rule="evenodd" clip-rule="evenodd" d="M6.35743 11.8262C18.0242 11.8034 29.6908 11.8262 41.3574 11.8945C42.3541 12.0706 43.0149 12.6403 43.3398 13.6035C43.4082 14.6506 43.4309 15.6989 43.4082 16.748C37.2101 16.7252 31.0122 16.748 24.8145 16.8164C22.8632 17.2639 21.7011 18.4715 21.3281 20.4395C21.2598 27.2297 21.2369 34.02 21.2598 40.8105C20.287 40.7524 19.33 40.8208 18.3887 41.0156C15.5404 43.4082 12.6921 45.8008 9.84375 48.1934C9.84002 45.8112 9.74888 43.4413 9.57032 41.084C9.46772 40.9984 9.35378 40.93 9.22852 40.8789C8.03533 40.8621 6.85045 40.7709 5.67383 40.6055C4.8772 40.1737 4.39868 39.5128 4.23828 38.623C4.14713 30.4199 4.14713 22.2168 4.23828 14.0137C4.51379 12.8497 5.22017 12.1205 6.35743 11.8262Z" fill="url(#paint0_linear_228_1678)"/>
<path opacity="0.975" fill-rule="evenodd" clip-rule="evenodd" d="M25.0879 18.252C37.8484 18.2291 50.6088 18.252 63.3692 18.3203C64.6344 18.6285 65.3863 19.4261 65.625 20.7129C65.7162 29.5996 65.7162 38.4863 65.625 47.3731C65.5187 48.5667 64.9034 49.3642 63.7793 49.7656C62.5102 49.9279 61.234 50.019 59.9512 50.0391C59.8828 50.1074 59.8145 50.1758 59.7461 50.2441C59.5689 52.8329 59.4779 55.4306 59.4727 58.0371C56.2927 55.3874 53.1254 52.7214 49.9707 50.0391C41.7676 49.9935 33.5645 49.9479 25.3614 49.9023C23.9428 49.7142 23.0996 48.9167 22.8321 47.5098C22.7409 38.5775 22.7409 29.6451 22.8321 20.7129C23.0937 19.4264 23.8457 18.6061 25.0879 18.252ZM40.127 21.8066C40.5579 21.7327 40.8997 21.8694 41.1524 22.2168C41.2207 23.2639 41.2434 24.3122 41.2207 25.3613C42.1322 25.3613 43.0436 25.3613 43.9551 25.3613C43.9324 24.3122 43.9551 23.2639 44.0235 22.2168C44.5355 21.6609 44.9912 21.7064 45.3907 22.3535C45.459 23.3551 45.4817 24.3577 45.459 25.3613C46.3249 25.3613 47.1908 25.3613 48.0567 25.3613C48.034 24.4032 48.0567 23.4462 48.125 22.4902C48.3081 21.8861 48.6956 21.7038 49.2871 21.9434C49.4353 22.1026 49.5492 22.2849 49.6289 22.4902C49.6973 23.4462 49.72 24.4032 49.6973 25.3613C52.1108 25.4961 53.3868 26.7723 53.5254 29.1895C54.5291 29.1668 55.5316 29.1895 56.5332 29.2578C57.1537 29.6715 57.1993 30.1272 56.67 30.625C55.6228 30.6934 54.5746 30.7161 53.5254 30.6934C53.5254 31.6049 53.5254 32.5162 53.5254 33.4277C54.5291 33.405 55.5316 33.4277 56.5332 33.4961C57.2624 33.9518 57.2624 34.4076 56.5332 34.8633C55.5316 34.9316 54.5291 34.9543 53.5254 34.9316C53.5254 35.7975 53.5254 36.6635 53.5254 37.5293C54.5854 37.4752 55.6336 37.5435 56.67 37.7344C57.2145 38.2931 57.1235 38.7488 56.3965 39.1016C55.4406 39.1699 54.4835 39.1926 53.5254 39.1699C53.3448 41.7203 51.9776 42.9964 49.4239 42.9981C49.4466 43.9562 49.4239 44.9132 49.3555 45.8691C48.8542 46.7806 48.3529 46.7806 47.8516 45.8691C47.7832 44.9132 47.7605 43.9562 47.7832 42.9981C46.8262 42.9981 45.8692 42.9981 44.9121 42.9981C44.9348 44.0472 44.9121 45.0955 44.8438 46.1426C44.3203 46.7117 43.8645 46.6661 43.4766 46.0059C43.4082 45.0043 43.3855 44.0017 43.4082 42.9981C42.5879 42.9981 41.7676 42.9981 40.9473 42.9981C40.97 44.0472 40.9473 45.0955 40.8789 46.1426C40.3554 46.7117 39.8996 46.6661 39.5118 46.0059C39.4434 45.0043 39.4207 44.0017 39.4434 42.9981C37.1714 42.7312 35.9865 41.4552 35.8887 39.1699C34.8851 39.1926 33.8825 39.1699 32.8809 39.1016C32.3448 38.8627 32.2081 38.4753 32.4707 37.9395C32.6638 37.7609 32.8917 37.6469 33.1543 37.5977C34.0646 37.5293 34.9761 37.5066 35.8887 37.5293C35.8887 36.6635 35.8887 35.7975 35.8887 34.9316C34.8395 34.9543 33.7913 34.9316 32.7442 34.8633C32.1973 34.4076 32.1973 33.9518 32.7442 33.4961C33.7913 33.4277 34.8395 33.405 35.8887 33.4277C35.8887 32.5162 35.8887 31.6049 35.8887 30.6934C34.8395 30.7161 33.7913 30.6934 32.7442 30.625C32.1644 30.1063 32.2099 29.6506 32.8809 29.2578C33.8825 29.1895 34.8851 29.1668 35.8887 29.1895C35.9759 26.7325 37.2519 25.4565 39.7168 25.3613C39.6941 24.3122 39.7168 23.2639 39.7852 22.2168C39.9281 22.0974 40.0419 21.9607 40.127 21.8066ZM42.8614 30.2832C44.2778 30.446 45.1664 31.2207 45.5274 32.6074C45.6585 34.3067 45.613 35.993 45.3907 37.666C44.9805 38.0306 44.5703 38.0306 44.1602 37.666C43.9755 36.9042 43.9071 36.1296 43.9551 35.3418C43.2715 35.3418 42.5879 35.3418 41.9043 35.3418C41.9437 36.1251 41.898 36.8998 41.7676 37.666C41.2898 38.0581 40.8568 38.0126 40.4688 37.5293C40.3776 35.7975 40.3776 34.0658 40.4688 32.334C40.8316 31.127 41.6293 30.4434 42.8614 30.2832ZM47.7832 30.4199C48.4127 30.2667 48.8 30.4944 48.9453 31.1035C49.0365 33.1543 49.0365 35.2051 48.9453 37.2559C48.7981 37.8868 48.4108 38.0919 47.7832 37.8711C47.619 37.7476 47.505 37.5882 47.4414 37.3926C47.3502 35.2506 47.3502 33.1088 47.4414 30.9668C47.5319 30.7639 47.646 30.5817 47.7832 30.4199Z" fill="url(#paint1_linear_228_1678)"/>
<path opacity="0.959" fill-rule="evenodd" clip-rule="evenodd" d="M39.0332 26.8652C42.8161 26.8424 46.5986 26.8652 50.3809 26.9336C51.0336 27.1111 51.5121 27.4985 51.8164 28.0957C51.9076 32.1517 51.9076 36.2076 51.8164 40.2637C51.4844 40.9153 50.9602 41.3027 50.2442 41.4258C46.5528 41.517 42.8614 41.517 39.17 41.4258C38.2684 41.3447 37.6987 40.8662 37.461 39.9902C37.3698 36.1166 37.3698 32.2428 37.461 28.3691C37.7056 27.5544 38.2296 27.0532 39.0332 26.8652ZM42.8614 30.2832C41.6293 30.4434 40.8316 31.127 40.4688 32.334C40.3776 34.0658 40.3776 35.7975 40.4688 37.5293C40.8568 38.0126 41.2898 38.0581 41.7676 37.666C41.898 36.8998 41.9437 36.1251 41.9043 35.3418C42.5879 35.3418 43.2715 35.3418 43.9551 35.3418C43.9071 36.1296 43.9755 36.9042 44.1602 37.666C44.5703 38.0306 44.9805 38.0306 45.3907 37.666C45.613 35.993 45.6585 34.3067 45.5274 32.6074C45.1664 31.2207 44.2778 30.446 42.8614 30.2832ZM47.7832 30.4199C47.646 30.5817 47.5319 30.7639 47.4414 30.9668C47.3502 33.1088 47.3502 35.2506 47.4414 37.3926C47.505 37.5882 47.619 37.7476 47.7832 37.8711C48.4108 38.0919 48.7981 37.8868 48.9453 37.2559C49.0365 35.2051 49.0365 33.1543 48.9453 31.1035C48.8 30.4944 48.4127 30.2667 47.7832 30.4199Z" fill="url(#paint2_linear_228_1678)"/>
<path opacity="0.86" fill-rule="evenodd" clip-rule="evenodd" d="M42.4512 31.9238C43.7881 31.8532 44.2894 32.4912 43.9551 33.8379C43.2715 33.8379 42.588 33.8379 41.9044 33.8379C41.7819 33.0976 41.9641 32.4595 42.4512 31.9238Z" fill="url(#paint3_linear_228_1678)"/>
<defs>
<linearGradient id="paint0_linear_228_1678" x1="12.8211" y1="11.8176" x2="40.5833" y2="50.2406" gradientUnits="userSpaceOnUse">
<stop offset="0.404" stop-color="#65CDAA"/>
<stop offset="1" stop-color="#3E9175"/>
</linearGradient>
<linearGradient id="paint1_linear_228_1678" x1="32.2267" y1="18.2434" x2="62.5986" y2="60.2735" gradientUnits="userSpaceOnUse">
<stop offset="0.404" stop-color="#65CDAA"/>
<stop offset="1" stop-color="#3E9175"/>
</linearGradient>
<linearGradient id="paint2_linear_228_1678" x1="40.5871" y1="26.8567" x2="52.0253" y2="41.3836" gradientUnits="userSpaceOnUse">
<stop offset="0.404" stop-color="#65CDAA"/>
<stop offset="1" stop-color="#3E9175"/>
</linearGradient>
<linearGradient id="paint3_linear_228_1678" x1="42.3497" y1="31.9185" x2="43.7876" y2="34.0211" gradientUnits="userSpaceOnUse">
<stop offset="0.404" stop-color="#65CDAA"/>
<stop offset="1" stop-color="#3E9175"/>
</linearGradient>
</defs>
</svg>
