<svg width="70" height="70" viewBox="0 0 70 70" fill="none" xmlns="http://www.w3.org/2000/svg">
<path opacity="0.972" fill-rule="evenodd" clip-rule="evenodd" d="M27.6856 3.21289C29.8808 3.15296 32.0683 3.22132 34.2481 3.41797C34.4076 3.57748 34.567 3.73697 34.7266 3.89648C34.7721 5.26367 34.8178 6.63086 34.8633 7.99804C37.9498 4.83592 41.5729 4.03838 45.7324 5.60547C49.3511 7.42556 51.2196 10.365 51.3379 14.4238C56.1851 14.6241 59.307 17.0395 60.7031 21.6699C60.9194 23.0407 60.9649 24.4078 60.8398 25.7715C65.246 27.2382 67.5474 30.2915 67.7441 34.9316C67.5433 39.575 65.2418 42.6284 60.8398 44.0918C61.4422 48.9716 59.551 52.5036 55.166 54.6875C53.9331 55.1574 52.657 55.408 51.3379 55.4395C51.1403 60.2782 48.7249 63.3999 44.0918 64.8047C40.4508 65.5505 37.3747 64.5706 34.8633 61.8652C34.8178 63.2324 34.7721 64.5996 34.7266 65.9668C34.567 66.1263 34.4076 66.2858 34.2481 66.4453C33.0712 66.5965 31.8862 66.6649 30.6934 66.6504C29.5005 66.6649 28.3156 66.5965 27.1387 66.4453C26.9269 66.2793 26.7675 66.0743 26.6602 65.8301C26.5918 63.8254 26.569 61.8201 26.5918 59.8145C24.6735 59.3269 22.8506 58.5977 21.1231 57.627C19.7349 58.9466 18.3678 60.2911 17.0215 61.6602C16.5658 61.9336 16.11 61.9336 15.6543 61.6602C12.6654 58.7169 9.72592 55.7319 6.83594 52.7051C6.73272 52.3219 6.77829 51.9572 6.97266 51.6113C8.3418 50.2651 9.68621 48.8979 11.0059 47.5098C10.0354 45.7831 9.30619 43.9601 8.81836 42.041C6.81263 42.0638 4.80743 42.041 2.80274 41.9727C2.55856 41.8653 2.35348 41.7059 2.1875 41.4941C2.09635 37.1191 2.09635 32.7441 2.1875 28.3691C2.35348 28.1574 2.55856 27.9979 2.80274 27.8906C4.80743 27.8223 6.81263 27.7994 8.81836 27.8223C9.30619 25.9031 10.0354 24.0801 11.0059 22.3535C9.68621 20.9654 8.3418 19.5982 6.97266 18.252C6.69922 17.7963 6.69922 17.3404 6.97266 16.8848C9.91595 13.8958 12.901 10.9564 15.9277 8.0664C16.311 7.96318 16.6756 8.00875 17.0215 8.20312C18.3678 9.57227 19.7349 10.9167 21.1231 12.2363C22.8288 11.2121 24.6518 10.4829 26.5918 10.0488C26.569 8.04309 26.5918 6.03789 26.6602 4.0332C26.871 3.56941 27.2128 3.29597 27.6856 3.21289ZM40.8106 7.17773C45.6775 7.0552 48.4118 9.40222 49.0137 14.2187C48.3991 16.521 49.2423 17.364 51.543 16.748C56.5138 17.3917 58.838 20.2171 58.5156 25.2246C58.2337 25.8851 58.1425 26.5687 58.2422 27.2754C58.4017 27.4349 58.5612 27.5944 58.7207 27.7539C63.5053 28.6178 65.7155 31.4662 65.3516 36.2988C64.4242 39.6864 62.2139 41.6233 58.7207 42.1094C58.2043 42.5134 58.0449 43.0374 58.2422 43.6816C59.1311 46.9848 58.2425 49.6964 55.5762 51.8164C54.3508 52.6046 53.0063 53.0376 51.543 53.1152C49.2423 52.4993 48.3991 53.3423 49.0137 55.6445C48.5682 59.9409 46.1985 62.2878 41.9043 62.6855C37.944 62.3938 35.5969 60.2975 34.8633 56.3965C34.7949 52.2952 34.7721 48.1936 34.7949 44.0918C36.2995 44.069 37.8034 44.0918 39.3066 44.1602C39.8329 44.6636 40.3342 45.1876 40.8106 45.7324C39.8679 47.8779 40.278 49.7237 42.041 51.2695C43.7728 52.2721 45.5045 52.2721 47.2363 51.2695C48.966 49.6687 49.3533 47.7775 48.3984 45.5957C46.8893 43.5356 44.9524 42.9888 42.5879 43.9551C41.8336 43.2235 41.0588 42.5171 40.2637 41.8359C38.4414 41.7676 36.6183 41.7447 34.7949 41.7676C34.7949 39.8535 34.7949 37.9394 34.7949 36.0254C38.8968 36.0026 42.9983 36.0254 47.0996 36.0937C48.2937 38.9006 50.3445 39.8121 53.252 38.8281C55.7439 37.1574 56.2681 34.9928 54.8242 32.334C52.8309 30.2811 50.6662 30.0761 48.3301 31.7187C47.7806 32.3161 47.3705 32.9997 47.0996 33.7695C42.9983 33.8379 38.8968 33.8607 34.7949 33.8379C34.7949 31.9238 34.7949 30.0098 34.7949 28.0957C36.6183 28.1185 38.4414 28.0957 40.2637 28.0273C41.0588 27.3462 41.8336 26.6398 42.5879 25.9082C44.9524 26.8745 46.8893 26.3277 48.3984 24.2676C49.6511 20.6248 48.3978 18.4373 44.6387 17.7051C42.0417 18.0234 40.5835 19.4817 40.2637 22.0801C40.3077 22.8021 40.4901 23.4857 40.8106 24.1309C40.3342 24.6757 39.8329 25.1997 39.3066 25.7031C37.8034 25.7715 36.2995 25.7943 34.7949 25.7715C34.7721 21.6696 34.7949 17.5681 34.8633 13.4668C35.471 10.0567 37.4534 7.96036 40.8106 7.17773ZM44.502 20.0293C46.5078 20.4862 47.0318 21.6255 46.0742 23.4473C45.0301 24.3912 44.0275 24.3455 43.0664 23.3105C42.2412 21.6509 42.7197 20.5572 44.502 20.0293ZM31.6504 21.123C31.9238 21.123 32.1973 21.123 32.4707 21.123C32.4707 30.3287 32.4707 39.5345 32.4707 48.7402C26.9171 48.0267 23.0206 45.1101 20.7813 39.9902C18.7674 34.0163 20.0207 28.8437 24.541 24.4727C26.6216 22.7258 28.9914 21.6092 31.6504 21.123ZM51.0645 32.8809C53.1563 33.2533 53.726 34.3926 52.7734 36.2988C51.6398 37.2433 50.5917 37.1522 49.6289 36.0254C48.9988 34.4605 49.4773 33.4124 51.0645 32.8809ZM44.3652 45.7324C46.4676 46.1089 47.0373 47.2484 46.0742 49.1504C44.8107 50.0887 43.7169 49.9064 42.793 48.6035C42.4572 47.1789 42.9812 46.2219 44.3652 45.7324Z" fill="url(#paint0_linear_228_1753)"/>
<defs>
<linearGradient id="paint0_linear_228_1753" x1="16.5849" y1="3.19189" x2="65.6277" y2="68.2478" gradientUnits="userSpaceOnUse">
<stop offset="0.404" stop-color="#65CDAA"/>
<stop offset="1" stop-color="#3E9175"/>
</linearGradient>
</defs>
</svg>
