<svg width="35" height="35" viewBox="0 0 35 35" fill="none" xmlns="http://www.w3.org/2000/svg">
<g clip-path="url(#clip0_228_1454)">
<path opacity="0.992" fill-rule="evenodd" clip-rule="evenodd" d="M2.42676 5.16101C12.4528 5.14962 22.4789 5.16101 32.5049 5.19519C32.7705 5.24574 33.0211 5.33689 33.2568 5.46863C28.6977 10.0506 24.1176 14.6079 19.5166 19.1405C18.1494 20.1887 16.7822 20.1887 15.415 19.1405C10.814 14.6079 6.23397 10.0506 1.6748 5.46863C1.92482 5.34405 2.17548 5.24151 2.42676 5.16101Z" fill="url(#paint0_linear_228_1454)"/>
<path opacity="0.988" fill-rule="evenodd" clip-rule="evenodd" d="M-0.0341797 27.3096C-0.0341797 20.7471 -0.0341797 14.1846 -0.0341797 7.62207C0.0463221 7.37078 0.148861 7.12011 0.273438 6.87012C3.84996 10.3669 7.39327 13.8988 10.9033 17.4658C7.39327 21.0329 3.84996 24.5647 0.273438 28.0615C0.148861 27.8115 0.0463221 27.5609 -0.0341797 27.3096Z" fill="url(#paint1_linear_228_1454)"/>
<path opacity="0.988" fill-rule="evenodd" clip-rule="evenodd" d="M34.9658 7.62207C34.9658 14.1846 34.9658 20.7471 34.9658 27.3096C34.8853 27.5609 34.7828 27.8115 34.6582 28.0615C31.0817 24.5647 27.5384 21.0329 24.0283 17.4658C27.5384 13.8988 31.0817 10.3669 34.6582 6.87012C34.7828 7.12011 34.8853 7.37078 34.9658 7.62207Z" fill="url(#paint2_linear_228_1454)"/>
<path opacity="0.991" fill-rule="evenodd" clip-rule="evenodd" d="M12.2705 18.9014C13.0551 19.6288 13.8526 20.3466 14.6631 21.0547C16.8455 22.2806 18.919 22.1211 20.8838 20.5762C21.4307 20.0293 21.9775 19.4824 22.5244 18.9356C22.57 18.89 22.6155 18.89 22.6611 18.9356C26.2139 22.42 29.7458 25.9291 33.2568 29.4629C33.0211 29.5946 32.7705 29.6858 32.5049 29.7363C22.4788 29.7819 12.4528 29.7819 2.42676 29.7363C2.16117 29.6858 1.91051 29.5946 1.6748 29.4629C5.19952 25.9268 8.73141 22.4063 12.2705 18.9014Z" fill="url(#paint3_linear_228_1454)"/>
</g>
<defs>
<linearGradient id="paint0_linear_228_1454" x1="8.63644" y1="5.15674" x2="16.278" y2="26.1167" gradientUnits="userSpaceOnUse">
<stop offset="0.404" stop-color="#65CDAA"/>
<stop offset="1" stop-color="#3E9175"/>
</linearGradient>
<linearGradient id="paint1_linear_228_1454" x1="2.37678" y1="6.87012" x2="18.0593" y2="17.253" gradientUnits="userSpaceOnUse">
<stop offset="0.404" stop-color="#65CDAA"/>
<stop offset="1" stop-color="#3E9175"/>
</linearGradient>
<linearGradient id="paint2_linear_228_1454" x1="26.4393" y1="6.87012" x2="42.1218" y2="17.253" gradientUnits="userSpaceOnUse">
<stop offset="0.404" stop-color="#65CDAA"/>
<stop offset="1" stop-color="#3E9175"/>
</linearGradient>
<linearGradient id="paint3_linear_228_1454" x1="8.63644" y1="18.9014" x2="13.01" y2="35.2027" gradientUnits="userSpaceOnUse">
<stop offset="0.404" stop-color="#65CDAA"/>
<stop offset="1" stop-color="#3E9175"/>
</linearGradient>
<clipPath id="clip0_228_1454">
<rect width="35" height="35" fill="white"/>
</clipPath>
</defs>
</svg>
