<svg width="31" height="31" viewBox="0 0 31 31" fill="none" xmlns="http://www.w3.org/2000/svg">
<path opacity="0.984" fill-rule="evenodd" clip-rule="evenodd" d="M17.5018 2.98123C18.7218 2.97139 19.9418 2.98123 21.1615 3.01074C21.452 3.04998 21.5995 3.21722 21.6042 3.51248C21.6436 4.73239 21.6436 5.95227 21.6042 7.1722C21.5916 7.40465 21.4834 7.57193 21.2796 7.67393C20.2154 7.68184 19.1529 7.72116 18.0921 7.79199C17.6645 7.8895 17.4186 8.15513 17.3542 8.58887C17.3247 9.61182 17.3148 10.6349 17.3247 11.6583C18.6483 11.63 19.9667 11.6595 21.2796 11.7469C21.4195 11.9047 21.4883 12.0916 21.4862 12.3076C21.5255 13.5472 21.5255 14.7868 21.4862 16.0264C21.5218 16.4383 21.3349 16.6449 20.9254 16.6462C19.7253 16.6757 18.5251 16.6855 17.3247 16.6757C17.3346 20.0403 17.3247 23.4049 17.2952 26.7694C17.2719 26.9697 17.1637 27.0976 16.9705 27.1531C15.4752 27.1925 13.9798 27.1925 12.4844 27.1531C12.2847 27.0716 12.1765 26.9241 12.1598 26.7104C12.1303 23.3655 12.1204 20.0207 12.1303 16.6757C10.9851 16.703 9.84381 16.6735 8.70664 16.5871C8.62441 16.518 8.57518 16.4295 8.55907 16.3215C8.5197 14.8852 8.5197 13.4488 8.55907 12.0125C8.58652 11.928 8.63575 11.8592 8.70664 11.8059C9.84239 11.7188 10.9836 11.6893 12.1303 11.7173C12.1098 10.4566 12.1393 9.19738 12.2188 7.93956C12.6978 4.91241 14.4588 3.25963 17.5018 2.98123Z" fill="url(#paint0_linear_228_2041)"/>
<defs>
<linearGradient id="paint0_linear_228_2041" x1="11.4181" y1="2.97754" x2="29.6503" y2="15.6391" gradientUnits="userSpaceOnUse">
<stop offset="0.404" stop-color="#65CDAA"/>
<stop offset="1" stop-color="#3E9175"/>
</linearGradient>
</defs>
</svg>
