<svg width="31" height="31" viewBox="0 0 31 31" fill="none" xmlns="http://www.w3.org/2000/svg">
<g clip-path="url(#clip0_228_2045)">
<path opacity="0.974" fill-rule="evenodd" clip-rule="evenodd" d="M7.39402 -0.0292969C12.6671 -0.0292969 17.9403 -0.0292969 23.2135 -0.0292969C27.247 0.738064 29.6475 3.13853 30.4148 7.17209C30.4148 12.4452 30.4148 17.7184 30.4148 22.9915C29.6475 27.0251 27.247 29.4256 23.2135 30.1929C17.9403 30.1929 12.6671 30.1929 7.39402 30.1929C3.36045 29.4256 0.959988 27.0251 0.192627 22.9915C0.192627 17.7184 0.192627 12.4452 0.192627 7.17209C0.959988 3.13853 3.36045 0.738064 7.39402 -0.0292969ZM7.5711 1.80056C12.7262 1.79072 17.8813 1.80056 23.0364 1.83008C25.9588 2.35197 27.7788 4.05394 28.4964 6.93598C28.5554 7.34723 28.5947 7.76042 28.6145 8.17556C28.6539 12.7797 28.6539 17.3839 28.6145 21.9881C28.444 24.9909 26.9585 27.0273 24.1579 28.0974C23.5222 28.2838 22.8729 28.3822 22.21 28.3926C17.6058 28.4319 13.0017 28.4319 8.39749 28.3926C5.60865 28.2582 3.63122 26.93 2.4652 24.4082C2.26288 23.8941 2.12515 23.3628 2.052 22.8145C1.99403 17.5201 2.0137 12.2273 2.11103 6.93598C2.83902 4.05323 4.65905 2.34142 7.5711 1.80056ZM23.5676 5.6964C24.1471 5.67567 24.4127 5.9511 24.3645 6.52279C24.2005 6.90936 23.9152 7.03727 23.5086 6.90647C23.1775 6.71303 23.0693 6.42775 23.1839 6.05056C23.2969 5.91149 23.4248 5.79341 23.5676 5.6964Z" fill="url(#paint0_linear_228_2045)"/>
<path opacity="0.963" fill-rule="evenodd" clip-rule="evenodd" d="M23.3317 3.86748C24.8422 3.76064 25.7965 4.42962 26.1946 5.87442C26.3459 7.15627 25.8441 8.0712 24.6894 8.61922C23.3278 9.03099 22.2752 8.6276 21.5314 7.40915C21.0332 6.08999 21.3579 5.01766 22.5054 4.19213C22.7804 4.06476 23.0558 3.95654 23.3317 3.86748ZM23.5679 5.69734C23.4251 5.79435 23.2972 5.91244 23.1842 6.05151C23.0695 6.4287 23.1777 6.71398 23.5088 6.90741C23.9154 7.03822 24.2007 6.9103 24.3647 6.52373C24.413 5.95205 24.1473 5.67661 23.5679 5.69734Z" fill="url(#paint1_linear_228_2045)"/>
<path opacity="0.962" fill-rule="evenodd" clip-rule="evenodd" d="M14.3592 6.81768C17.9307 6.60122 20.6558 7.99823 22.5346 11.0086C23.6385 13.0759 23.8746 15.2403 23.2429 17.5017C22.0733 20.8364 19.7417 22.7745 16.2481 23.3159C12.6752 23.5611 9.95007 22.174 8.07275 19.1545C6.96881 17.0872 6.7327 14.9228 7.36441 12.6614C8.54768 9.33102 10.8793 7.3831 14.3592 6.81768ZM14.4773 8.64754C11.3692 9.26656 9.50984 11.1358 8.89914 14.2552C8.69726 17.4344 10.0254 19.707 12.8835 21.0729C15.322 21.9421 17.5453 21.5683 19.5536 19.9514C21.6782 17.8967 22.2587 15.4667 21.295 12.6614C19.9275 9.81233 17.655 8.47435 14.4773 8.64754Z" fill="url(#paint2_linear_228_2045)"/>
</g>
<defs>
<linearGradient id="paint0_linear_228_2045" x1="6.85452" y1="-0.0292979" x2="30.4148" y2="30.1929" gradientUnits="userSpaceOnUse">
<stop offset="0.404" stop-color="#65CDAA"/>
<stop offset="1" stop-color="#3E9175"/>
</linearGradient>
<linearGradient id="paint1_linear_228_2045" x1="22.3887" y1="3.85645" x2="26.2239" y2="8.7729" gradientUnits="userSpaceOnUse">
<stop offset="0.404" stop-color="#65CDAA"/>
<stop offset="1" stop-color="#3E9175"/>
</linearGradient>
<linearGradient id="paint2_linear_228_2045" x1="10.6717" y1="6.7959" x2="23.5678" y2="23.3591" gradientUnits="userSpaceOnUse">
<stop offset="0.404" stop-color="#65CDAA"/>
<stop offset="1" stop-color="#3E9175"/>
</linearGradient>
<clipPath id="clip0_228_2045">
<rect width="30.2222" height="30.2222" fill="white" transform="translate(0.222168)"/>
</clipPath>
</defs>
</svg>
