<svg width="31" height="31" viewBox="0 0 31 31" fill="none" xmlns="http://www.w3.org/2000/svg">
<path opacity="0.977" fill-rule="evenodd" clip-rule="evenodd" d="M5.78646 2.98082C7.64294 2.84188 8.79398 3.66827 9.23958 5.45999C9.35982 7.20762 8.58266 8.31935 6.90799 8.79505C5.07745 8.97049 3.92641 8.17361 3.45486 6.40443C3.31433 4.6282 4.09153 3.48699 5.78646 2.98082Z" fill="url(#paint0_linear_228_2053)"/>
<path opacity="0.987" fill-rule="evenodd" clip-rule="evenodd" d="M21.1337 10.5949C22.524 10.5183 23.8423 10.7839 25.0885 11.3918C26.0309 12.0002 26.69 12.8364 27.066 13.9005C27.3766 14.8397 27.5537 15.8039 27.5972 16.7928C27.6267 20.2557 27.6366 23.7187 27.6267 27.1817C25.9346 27.1817 24.2425 27.1817 22.5503 27.1817C22.5602 24.0532 22.5503 20.9247 22.5208 17.7963C22.3394 15.5875 21.1687 14.712 19.0087 15.1695C18.0096 15.5197 17.4095 16.2182 17.2083 17.265C17.1545 17.5186 17.1151 17.7743 17.0903 18.0324C17.0608 21.0821 17.0509 24.1319 17.0608 27.1817C15.3686 27.1817 13.6765 27.1817 11.9844 27.1817C11.9844 21.7905 11.9844 16.3993 11.9844 11.0081C13.5978 11.0081 15.2112 11.0081 16.8247 11.0081C16.8148 11.7364 16.8247 12.4644 16.8542 13.1921C17.5794 11.9764 18.6321 11.1796 20.0122 10.8015C20.3922 10.7194 20.7661 10.6506 21.1337 10.5949Z" fill="url(#paint1_linear_228_2053)"/>
<path opacity="0.986" fill-rule="evenodd" clip-rule="evenodd" d="M3.7793 11.0088C5.47143 11.0088 7.16354 11.0088 8.85569 11.0088C8.85569 16.4 8.85569 21.7912 8.85569 27.1824C7.16354 27.1824 5.47143 27.1824 3.7793 27.1824C3.7793 21.7912 3.7793 16.4 3.7793 11.0088Z" fill="url(#paint2_linear_228_2053)"/>
<defs>
<linearGradient id="paint0_linear_228_2053" x1="4.72007" y1="2.96582" x2="9.29042" y2="8.78838" gradientUnits="userSpaceOnUse">
<stop offset="0.404" stop-color="#65CDAA"/>
<stop offset="1" stop-color="#3E9175"/>
</linearGradient>
<linearGradient id="paint1_linear_228_2053" x1="15.4332" y1="10.582" x2="28.5402" y2="26.4292" gradientUnits="userSpaceOnUse">
<stop offset="0.404" stop-color="#65CDAA"/>
<stop offset="1" stop-color="#3E9175"/>
</linearGradient>
<linearGradient id="paint2_linear_228_2053" x1="4.89829" y1="11.0088" x2="13.9071" y2="14.6359" gradientUnits="userSpaceOnUse">
<stop offset="0.404" stop-color="#65CDAA"/>
<stop offset="1" stop-color="#3E9175"/>
</linearGradient>
</defs>
</svg>
