<svg width="35" height="35" viewBox="0 0 35 35" fill="none" xmlns="http://www.w3.org/2000/svg">
<path opacity="0.989" fill-rule="evenodd" clip-rule="evenodd" d="M8.03223 1.05966C8.94722 0.976023 9.68776 1.29504 10.2539 2.01669C11.8284 4.1616 13.1955 6.44024 14.3555 8.85263C14.544 9.31556 14.6694 9.79408 14.7314 10.2882C14.7051 10.6522 14.6025 10.994 14.4238 11.3136C13.6344 12.1713 12.7799 12.9575 11.8604 13.672C13.5312 18.2481 16.6529 21.3812 21.2256 23.0714C21.7491 22.4907 22.2618 21.8983 22.7637 21.294C23.2448 20.672 23.8714 20.3075 24.6436 20.2003C25.7582 20.4162 26.8063 20.815 27.7881 21.3966C29.575 22.4323 31.3067 23.5488 32.9834 24.7462C33.9033 25.5221 34.097 26.4449 33.5645 27.5147C32.6011 28.7972 31.496 29.9479 30.249 30.9669C28.9484 32.0844 27.5357 33.0415 26.0107 33.838C24.8687 33.874 23.7521 33.7145 22.6611 33.3595C19.9674 32.4911 17.461 31.2606 15.1416 29.6681C9.68222 25.8954 5.50092 21.0304 2.59766 15.0733C1.8895 13.4729 1.3882 11.8094 1.09375 10.0831C1.04818 9.69571 1.04818 9.30838 1.09375 8.92099C2.60693 6.13083 4.57795 3.70407 7.00684 1.64072C7.33291 1.40959 7.67471 1.21591 8.03223 1.05966Z" fill="url(#paint0_linear_228_1468)"/>
<defs>
<linearGradient id="paint0_linear_228_1468" x1="8.28919" y1="1.04663" x2="33.8559" y2="33.844" gradientUnits="userSpaceOnUse">
<stop offset="0.404" stop-color="#65CDAA"/>
<stop offset="1" stop-color="#3E9175"/>
</linearGradient>
</defs>
</svg>
