<svg width="31" height="31" viewBox="0 0 31 31" fill="none" xmlns="http://www.w3.org/2000/svg">
<g clip-path="url(#clip0_228_2061)">
<path opacity="0.966" fill-rule="evenodd" clip-rule="evenodd" d="M0.932373 -0.0292969C3.90344 -0.0292969 6.87452 -0.0292969 9.84557 -0.0292969C12.3442 3.66892 14.8726 7.34829 17.4306 11.0089C20.601 7.33702 23.759 3.65764 26.9046 -0.0292969C27.8097 -0.0292969 28.7148 -0.0292969 29.6199 -0.0292969C25.9615 4.23923 22.3018 8.50889 18.6407 12.7797C22.6168 18.5852 26.5913 24.3896 30.5643 30.1929C27.5933 30.1929 24.6222 30.1929 21.6511 30.1929C18.9981 26.2901 16.332 22.3942 13.6529 18.5054C10.3054 22.3937 6.97032 26.2895 3.64765 30.1929C2.74256 30.1929 1.83746 30.1929 0.932373 30.1929C4.75757 25.7085 8.59436 21.2322 12.4428 16.7641C8.61301 11.1605 4.77623 5.56268 0.932373 -0.0292969ZM4.5921 2.03668C5.90076 1.95826 7.21907 1.95826 8.54696 2.03668C14.6443 10.7981 20.7636 19.5441 26.9046 28.2745C25.5859 28.3237 24.2676 28.3138 22.9497 28.245C16.8292 19.505 10.71 10.7689 4.5921 2.03668Z" fill="url(#paint0_linear_228_2061)"/>
</g>
<defs>
<linearGradient id="paint0_linear_228_2061" x1="7.46415" y1="-0.0292979" x2="31.1338" y2="29.7401" gradientUnits="userSpaceOnUse">
<stop offset="0.404" stop-color="#65CDAA"/>
<stop offset="1" stop-color="#3E9175"/>
</linearGradient>
<clipPath id="clip0_228_2061">
<rect width="30.2222" height="30.2222" fill="white" transform="translate(0.666748)"/>
</clipPath>
</defs>
</svg>
