<svg width="32" height="31" viewBox="0 0 32 31" fill="none" xmlns="http://www.w3.org/2000/svg">
<path opacity="0.993" fill-rule="evenodd" clip-rule="evenodd" d="M12.9601 4.87079C15.676 4.85624 18.3912 4.88575 21.106 4.95934C22.6642 4.9989 24.2186 5.09728 25.7692 5.25447C27.4283 5.28118 28.6384 6.019 29.3994 7.46802C29.6823 8.33165 29.8594 9.21707 29.9306 10.1243C30.2061 13.2134 30.2061 16.3025 29.9306 19.3916C29.8708 20.0664 29.7724 20.7354 29.6355 21.3986C29.3381 22.7782 28.5215 23.6931 27.1858 24.1434C26.3501 24.333 25.504 24.4511 24.6476 24.4975C19.5537 24.7979 14.4577 24.8373 9.35945 24.6156C7.83099 24.5784 6.31595 24.421 4.81431 24.1434C3.14346 23.5501 2.2482 22.3597 2.12855 20.5722C1.57734 16.4108 1.63636 12.2592 2.30563 8.11732C2.6835 6.73595 3.55909 5.84071 4.93237 5.43156C5.69311 5.28268 6.46047 5.1843 7.23445 5.13642C9.1512 5.02039 11.0597 4.93185 12.9601 4.87079ZM13.1372 10.6555C15.5834 12.0263 18.0233 13.4135 20.4567 14.817C18.0365 16.2041 15.6164 17.5913 13.1963 18.9784C13.1372 16.2044 13.1176 13.4301 13.1372 10.6555Z" fill="url(#paint0_linear_228_2065)"/>
<defs>
<linearGradient id="paint0_linear_228_2065" x1="8.0114" y1="4.86719" x2="21.4654" y2="29.4943" gradientUnits="userSpaceOnUse">
<stop offset="0.404" stop-color="#65CDAA"/>
<stop offset="1" stop-color="#3E9175"/>
</linearGradient>
</defs>
</svg>
